<?xml version="1.0" encoding="UTF-8"?>
<svg id="Capa_1" xmlns="http://www.w3.org/2000/svg" version="1.1" viewBox="0 0 487.91 336.26">
  <!-- Generator: Adobe Illustrator 29.0.0, SVG Export Plug-In . SVG Version: 2.1.0 Build 186)  -->
  <defs>
    <style>
      .st0 {
        fill: #fff;
      }

      .st1 {
        stroke-width: .22px;
      }

      .st1, .st2, .st3, .st4, .st5, .st6, .st7, .st8 {
        fill: none;
        stroke-miterlimit: 10;
      }

      .st1, .st2, .st8 {
        stroke: #fff;
      }

      .st2 {
        stroke-width: .5px;
      }

      .st9 {
        fill: #9200b8;
      }

      .st10 {
        fill: #ff9a51;
      }

      .st11 {
        fill: #000aff;
      }

      .st12 {
        fill: #e92fed;
      }

      .st3 {
        stroke: #ffe86f;
      }

      .st3, .st4, .st5, .st6, .st7 {
        stroke-width: .75px;
      }

      .st4 {
        stroke: #000aff;
      }

      .st5 {
        stroke: #ff9a51;
      }

      .st13 {
        fill: #ffe86f;
      }

      .st6 {
        stroke: #e92fed;
      }

      .st7 {
        stroke: #9200b8;
      }

      .st8 {
        stroke-width: .25px;
      }
    </style>
  </defs>
  <g>
    <path class="st0" d="M9.13,12.8c0-2.94,1.68-4.72,4.04-4.72,1.21,0,2,.57,2.51,1.11l-.67.73c-.43-.46-.97-.82-1.84-.82-1.71,0-2.82,1.4-2.82,3.66s1.01,3.72,2.79,3.72c.64,0,1.23-.19,1.57-.53v-2.37h-1.8v-.96h2.88v3.83c-.57.58-1.54,1.05-2.72,1.05-2.29,0-3.94-1.75-3.94-4.72Z"/>
    <path class="st0" d="M18.29,8.25h5.63v.98h-4.47v2.84h3.77v.98h-3.77v3.3h4.6v.98h-5.77v-9.1Z"/>
    <path class="st0" d="M26.17,8.25h1.28l2.91,5.71.88,1.89h.03c-.04-.9-.15-1.93-.15-2.88v-4.72h1.11v9.1h-1.28l-2.91-5.71-.87-1.89h-.03c.04.93.15,1.9.15,2.84v4.76h-1.11v-9.1Z"/>
    <path class="st0" d="M34.93,8.25h5.63v.98h-4.47v2.84h3.77v.98h-3.77v3.3h4.61v.98h-5.77v-9.1Z"/>
    <path class="st0" d="M43.05,8.25h2.84c1.84,0,3.19.67,3.19,2.57s-1.35,2.69-3.19,2.69h-1.66v3.84h-1.18v-9.1ZM45.72,12.56c1.42,0,2.19-.58,2.19-1.75s-.78-1.62-2.19-1.62h-1.5v3.37h1.5ZM46.57,12.58l2.77,4.77h-1.32l-2.37-4.16.92-.61Z"/>
    <path class="st0" d="M50.66,12.76c0-2.94,1.44-4.67,3.5-4.67s3.5,1.73,3.5,4.67-1.44,4.76-3.5,4.76-3.5-1.78-3.5-4.76ZM56.44,12.76c0-2.29-.92-3.65-2.29-3.65s-2.29,1.36-2.29,3.65.92,3.73,2.29,3.73,2.29-1.4,2.29-3.73Z"/>
  </g>
  <g>
    <path class="st0" d="M43.45,31.75h-2.97v-.39h6.38v.39h-2.97v8.77h-.44v-8.77Z"/>
    <path class="st0" d="M49.94,36.74l-2.75-5.38h.47l1.47,2.97c.33.67.64,1.3,1,1.97h.06c.36-.67.72-1.3,1.03-1.97l1.47-2.97h.44l-2.75,5.38v3.77h-.44v-3.77Z"/>
    <path class="st0" d="M53.82,35.91c0-2.89,1.53-4.72,3.86-4.72,1.05,0,1.86.53,2.33,1.08l-.28.31c-.5-.58-1.19-.97-2.05-.97-2.11,0-3.38,1.66-3.38,4.3s1.28,4.35,3.33,4.35c.97,0,1.69-.39,2.39-1.17l.28.28c-.69.8-1.5,1.3-2.69,1.3-2.25,0-3.77-1.89-3.77-4.77Z"/>
    <path class="st0" d="M61.31,35.91c0-2.89,1.55-4.72,3.72-4.72s3.72,1.83,3.72,4.72-1.55,4.77-3.72,4.77-3.72-1.89-3.72-4.77ZM68.27,35.91c0-2.64-1.3-4.3-3.25-4.3s-3.25,1.66-3.25,4.3,1.3,4.35,3.25,4.35,3.25-1.72,3.25-4.35Z"/>
    <path class="st0" d="M70.29,35.91c0-2.89,1.55-4.72,3.72-4.72s3.72,1.83,3.72,4.72-1.55,4.77-3.72,4.77-3.72-1.89-3.72-4.77ZM77.26,35.91c0-2.64-1.3-4.3-3.25-4.3s-3.25,1.66-3.25,4.3,1.3,4.35,3.25,4.35,3.25-1.72,3.25-4.35Z"/>
    <path class="st0" d="M79.89,31.36h.47l4.05,6.71,1.05,1.8h.06c-.03-.89-.06-1.72-.06-2.58v-5.94h.42v9.15h-.47l-4.05-6.71-1.05-1.8h-.05c.03.86.05,1.64.05,2.5v6.02h-.42v-9.15Z"/>
  </g>
  <g>
    <path class="st0" d="M41.45,56.38h4.91v.39h-4.47v3.69h3.75v.39h-3.75v4.3h4.61v.39h-5.05v-9.15Z"/>
    <path class="st0" d="M47.8,64.31l.3-.3c.67.78,1.64,1.28,2.75,1.28,1.47,0,2.41-.8,2.41-1.97s-.78-1.61-1.69-2.02l-1.41-.64c-.78-.35-1.86-.89-1.86-2.25s1.11-2.19,2.58-2.19c1.11,0,1.97.51,2.5,1.08l-.28.31c-.53-.58-1.28-.97-2.22-.97-1.28,0-2.14.69-2.14,1.75,0,1.14.96,1.57,1.61,1.86l1.42.64c1.01.46,1.94,1,1.94,2.41s-1.14,2.41-2.86,2.41c-1.36,0-2.36-.58-3.05-1.39Z"/>
    <path class="st0" d="M57.4,56.77h-2.97v-.39h6.38v.39h-2.97v8.77h-.44v-8.77Z"/>
    <path class="st0" d="M62.61,56.38h2.52c1.8,0,2.94.67,2.94,2.36s-1.14,2.47-2.94,2.47h-2.08v4.33h-.44v-9.15ZM64.97,60.82c1.69,0,2.64-.67,2.64-2.08s-.94-1.97-2.64-1.97h-1.91v4.05h1.91ZM65.02,61.07l.5-.03,2.69,4.49h-.53l-2.66-4.47Z"/>
    <path class="st0" d="M72.04,56.38h.39l3.27,9.15h-.47l-1.91-5.49c-.39-1.11-.72-2.05-1.05-3.19h-.06c-.33,1.14-.67,2.08-1.05,3.19l-1.94,5.49h-.44l3.27-9.15ZM70.18,61.87h4.06v.39h-4.06v-.39Z"/>
    <path class="st0" d="M78.67,56.77h-2.97v-.39h6.38v.39h-2.97v8.77h-.44v-8.77Z"/>
    <path class="st0" d="M83.88,56.38h4.91v.39h-4.47v3.69h3.74v.39h-3.74v4.3h4.6v.39h-5.05v-9.15Z"/>
    <path class="st0" d="M90.34,60.93c0-2.89,1.58-4.72,3.99-4.72,1.22,0,1.97.58,2.44,1.08l-.28.31c-.47-.53-1.14-.97-2.16-.97-2.19,0-3.52,1.66-3.52,4.3s1.28,4.35,3.41,4.35c.89,0,1.72-.28,2.19-.75v-3.02h-2.27v-.39h2.72v3.55c-.56.61-1.47,1.03-2.66,1.03-2.33,0-3.86-1.89-3.86-4.77Z"/>
    <path class="st0" d="M99.27,56.38h.44v9.15h-.44v-9.15Z"/>
    <path class="st0" d="M104.52,56.38h.39l3.27,9.15h-.47l-1.91-5.49c-.39-1.11-.72-2.05-1.05-3.19h-.06c-.33,1.14-.67,2.08-1.05,3.19l-1.94,5.49h-.44l3.27-9.15ZM102.66,61.87h4.06v.39h-4.06v-.39Z"/>
  </g>
  <g>
    <path class="st0" d="M40.84,88.69c0-2.89,1.53-4.72,3.86-4.72,1.05,0,1.86.53,2.33,1.08l-.28.31c-.5-.58-1.19-.97-2.05-.97-2.11,0-3.38,1.66-3.38,4.3s1.28,4.35,3.33,4.35c.97,0,1.69-.39,2.39-1.17l.28.28c-.69.8-1.5,1.3-2.69,1.3-2.25,0-3.77-1.89-3.77-4.77Z"/>
    <path class="st0" d="M51.27,84.14h.39l3.27,9.15h-.47l-1.91-5.49c-.39-1.11-.72-2.05-1.05-3.19h-.05c-.33,1.14-.67,2.08-1.05,3.19l-1.94,5.49h-.44l3.27-9.15ZM49.41,89.63h4.06v.39h-4.06v-.39Z"/>
    <path class="st0" d="M55.73,92.08l.3-.3c.67.78,1.64,1.28,2.75,1.28,1.47,0,2.41-.8,2.41-1.97s-.78-1.61-1.69-2.02l-1.41-.64c-.78-.35-1.86-.89-1.86-2.25s1.11-2.19,2.58-2.19c1.11,0,1.97.51,2.5,1.08l-.28.31c-.53-.58-1.28-.97-2.22-.97-1.28,0-2.14.69-2.14,1.75,0,1.14.96,1.57,1.61,1.86l1.42.64c1.01.46,1.94,1,1.94,2.41s-1.14,2.41-2.86,2.41c-1.36,0-2.36-.58-3.05-1.39Z"/>
    <path class="st0" d="M63.58,89.88v-5.74h.44v5.63c0,2.52,1.22,3.27,2.55,3.27s2.61-.75,2.61-3.27v-5.63h.42v5.74c0,2.83-1.55,3.58-3.02,3.58s-3-.75-3-3.58Z"/>
    <path class="st0" d="M74.09,84.14h.39l3.27,9.15h-.47l-1.91-5.49c-.39-1.11-.72-2.05-1.05-3.19h-.05c-.33,1.14-.67,2.08-1.05,3.19l-1.94,5.49h-.44l3.27-9.15ZM72.23,89.63h4.06v.39h-4.06v-.39Z"/>
    <path class="st0" d="M79.28,84.14h.44v8.77h4.3v.39h-4.74v-9.15Z"/>
  </g>
  <g>
    <path class="st0" d="M43.48,111.91h.39l3.27,9.15h-.47l-1.91-5.49c-.39-1.11-.72-2.05-1.05-3.19h-.05c-.33,1.14-.67,2.08-1.05,3.19l-1.94,5.49h-.44l3.27-9.15ZM41.62,117.4h4.06v.39h-4.06v-.39Z"/>
    <path class="st0" d="M47.22,111.91h.47l1.78,5.49c.36,1.14.61,1.97,1,3.09h.05c.39-1.12.64-1.96,1-3.09l1.78-5.49h.44l-3.02,9.15h-.44l-3.05-9.15Z"/>
    <path class="st0" d="M55.21,111.91h4.91v.39h-4.47v3.69h3.74v.39h-3.74v4.3h4.6v.39h-5.05v-9.15Z"/>
    <path class="st0" d="M62.28,111.91h.47l4.05,6.71,1.05,1.8h.06c-.03-.89-.06-1.72-.06-2.58v-5.94h.42v9.15h-.47l-4.05-6.71-1.05-1.8h-.06c.03.86.06,1.64.06,2.5v6.02h-.42v-9.15Z"/>
    <path class="st0" d="M73.04,112.29h-2.97v-.39h6.38v.39h-2.97v8.77h-.44v-8.77Z"/>
    <path class="st0" d="M78.22,117.65v-5.74h.44v5.63c0,2.52,1.22,3.27,2.55,3.27s2.61-.75,2.61-3.27v-5.63h.42v5.74c0,2.83-1.55,3.58-3.02,3.58s-3-.75-3-3.58Z"/>
    <path class="st0" d="M86.99,111.91h2.52c1.8,0,2.94.67,2.94,2.36s-1.14,2.47-2.94,2.47h-2.08v4.33h-.44v-9.15ZM89.35,116.34c1.69,0,2.64-.67,2.64-2.08s-.94-1.97-2.64-1.97h-1.91v4.05h1.91ZM89.4,116.59l.5-.03,2.69,4.49h-.53l-2.66-4.47Z"/>
    <path class="st0" d="M96.42,111.91h.39l3.27,9.15h-.47l-1.91-5.49c-.39-1.11-.72-2.05-1.05-3.19h-.06c-.33,1.14-.67,2.08-1.05,3.19l-1.94,5.49h-.44l3.27-9.15ZM94.56,117.4h4.06v.39h-4.06v-.39Z"/>
  </g>
  <g>
    <path class="st0" d="M41.45,139.67h.44v9.15h-.44v-9.15Z"/>
    <path class="st0" d="M44.67,139.67h2.05c2.83,0,4.11,1.83,4.11,4.55s-1.28,4.6-4.11,4.6h-2.05v-9.15ZM46.67,148.44c2.61,0,3.69-1.8,3.69-4.22s-1.08-4.16-3.69-4.16h-1.55v8.38h1.55Z"/>
    <path class="st0" d="M52.99,139.67h.44v8.77h4.3v.39h-4.74v-9.15Z"/>
    <path class="st0" d="M59.37,139.67h4.91v.39h-4.47v3.69h3.74v.39h-3.74v4.3h4.6v.39h-5.05v-9.15Z"/>
  </g>
  <path class="st0" d="M41.26,215.34h2.11v-7.66h-1.58v-.3c.69-.11,1.25-.31,1.64-.53h.36v8.49h1.97v.39h-4.49v-.39Z"/>
  <g>
    <path class="st0" d="M342.09,206.58h.39l3.27,9.15h-.47l-1.91-5.49c-.39-1.11-.72-2.05-1.05-3.19h-.06c-.33,1.14-.67,2.08-1.05,3.19l-1.94,5.49h-.44l3.27-9.15ZM340.23,212.07h4.06v.39h-4.06v-.39Z"/>
    <path class="st0" d="M347.27,206.58h4.88v.39h-4.44v3.86h3.75v.39h-3.75v4.52h-.44v-9.15Z"/>
    <path class="st0" d="M353.79,206.58h2.52c1.8,0,2.94.67,2.94,2.36s-1.14,2.47-2.94,2.47h-2.08v4.33h-.44v-9.15ZM356.15,211.02c1.69,0,2.63-.67,2.63-2.08s-.94-1.97-2.63-1.97h-1.91v4.05h1.91ZM356.2,211.27l.5-.03,2.69,4.49h-.53l-2.66-4.47Z"/>
    <path class="st0" d="M361.19,206.58h.44v9.15h-.44v-9.15Z"/>
    <path class="st0" d="M363.8,211.13c0-2.89,1.53-4.72,3.86-4.72,1.05,0,1.86.53,2.33,1.08l-.28.31c-.5-.58-1.19-.97-2.05-.97-2.11,0-3.38,1.66-3.38,4.3s1.28,4.35,3.33,4.35c.97,0,1.69-.39,2.39-1.17l.28.28c-.69.8-1.5,1.3-2.69,1.3-2.25,0-3.77-1.89-3.77-4.77Z"/>
    <path class="st0" d="M374.23,206.58h.39l3.27,9.15h-.47l-1.91-5.49c-.39-1.11-.72-2.05-1.05-3.19h-.05c-.33,1.14-.67,2.08-1.05,3.19l-1.94,5.49h-.44l3.27-9.15ZM372.37,212.07h4.06v.39h-4.06v-.39Z"/>
  </g>
  <g>
    <path class="st0" d="M342.09,233.71h.39l3.27,9.15h-.47l-1.91-5.49c-.39-1.11-.72-2.05-1.05-3.19h-.06c-.33,1.14-.67,2.08-1.05,3.19l-1.94,5.49h-.44l3.27-9.15ZM340.23,239.2h4.06v.39h-4.06v-.39Z"/>
    <path class="st0" d="M346.55,241.64l.3-.3c.67.78,1.64,1.28,2.75,1.28,1.47,0,2.41-.8,2.41-1.97s-.78-1.61-1.69-2.02l-1.41-.64c-.78-.35-1.86-.89-1.86-2.25s1.11-2.19,2.58-2.19c1.11,0,1.97.51,2.5,1.08l-.28.31c-.53-.58-1.28-.97-2.22-.97-1.28,0-2.14.69-2.14,1.75,0,1.14.96,1.57,1.61,1.86l1.42.64c1.01.46,1.94,1,1.94,2.41s-1.14,2.41-2.86,2.41c-1.36,0-2.36-.58-3.05-1.39Z"/>
    <path class="st0" d="M354.43,233.71h.44v9.15h-.44v-9.15Z"/>
    <path class="st0" d="M359.67,233.71h.39l3.27,9.15h-.47l-1.91-5.49c-.39-1.11-.72-2.05-1.05-3.19h-.05c-.33,1.14-.67,2.08-1.05,3.19l-1.94,5.49h-.44l3.27-9.15ZM357.81,239.2h4.06v.39h-4.06v-.39Z"/>
  </g>
  <g>
    <path class="st0" d="M339.34,320.13l.31-.3c.67.78,1.64,1.28,2.75,1.28,1.47,0,2.41-.8,2.41-1.97s-.78-1.61-1.69-2.02l-1.42-.64c-.78-.35-1.86-.89-1.86-2.25s1.11-2.19,2.58-2.19c1.11,0,1.97.51,2.5,1.08l-.28.31c-.53-.58-1.28-.97-2.22-.97-1.28,0-2.14.69-2.14,1.75,0,1.14.96,1.57,1.61,1.86l1.42.64c1.01.46,1.94,1,1.94,2.41s-1.14,2.41-2.86,2.41c-1.36,0-2.36-.58-3.05-1.39Z"/>
    <path class="st0" d="M347.19,317.94v-5.74h.44v5.63c0,2.52,1.22,3.27,2.55,3.27s2.61-.75,2.61-3.27v-5.63h.42v5.74c0,2.83-1.55,3.58-3.02,3.58s-3-.75-3-3.58Z"/>
    <path class="st0" d="M355.95,312.19h2.05c2.83,0,4.11,1.83,4.11,4.55s-1.28,4.6-4.11,4.6h-2.05v-9.15ZM357.95,320.96c2.61,0,3.69-1.8,3.69-4.22s-1.08-4.16-3.69-4.16h-1.55v8.38h1.55Z"/>
    <path class="st0" d="M366.16,312.19h.39l3.27,9.15h-.47l-1.91-5.49c-.39-1.11-.72-2.05-1.05-3.19h-.06c-.33,1.14-.67,2.08-1.05,3.19l-1.94,5.49h-.44l3.27-9.15ZM364.3,317.69h4.06v.39h-4.06v-.39Z"/>
    <path class="st0" d="M371.34,312.19h.72l1.97,5.55c.25.69.5,1.39.75,2.08h.06c.25-.69.47-1.39.72-2.08l1.97-5.55h.72v9.15h-.44v-6.38c0-.72.03-1.64.06-2.39h-.06l-.71,2.02-2.07,5.71h-.47l-2.08-5.71-.72-2.02h-.06c.03.75.06,1.66.06,2.39v6.38h-.42v-9.15Z"/>
    <path class="st0" d="M381.02,312.19h4.91v.39h-4.47v3.69h3.75v.39h-3.75v4.3h4.6v.39h-5.05v-9.15Z"/>
    <path class="st0" d="M388.09,312.19h2.52c1.8,0,2.94.67,2.94,2.36s-1.14,2.47-2.94,2.47h-2.08v4.33h-.44v-9.15ZM390.45,316.63c1.69,0,2.63-.67,2.63-2.08s-.94-1.97-2.63-1.97h-1.91v4.05h1.91ZM390.51,316.88l.5-.03,2.69,4.49h-.53l-2.66-4.47Z"/>
    <path class="st0" d="M395.5,312.19h.44v9.15h-.44v-9.15Z"/>
    <path class="st0" d="M398.1,316.74c0-2.89,1.53-4.72,3.86-4.72,1.05,0,1.86.53,2.33,1.08l-.28.31c-.5-.58-1.19-.97-2.05-.97-2.11,0-3.38,1.66-3.38,4.3s1.28,4.35,3.33,4.35c.97,0,1.69-.39,2.39-1.17l.28.28c-.69.8-1.5,1.3-2.69,1.3-2.25,0-3.77-1.89-3.77-4.77Z"/>
    <path class="st0" d="M408.53,312.19h.39l3.27,9.15h-.47l-1.91-5.49c-.39-1.11-.72-2.05-1.05-3.19h-.05c-.33,1.14-.67,2.08-1.05,3.19l-1.94,5.49h-.44l3.27-9.15ZM406.67,317.69h4.06v.39h-4.06v-.39Z"/>
  </g>
  <g>
    <path class="st0" d="M340.06,286.12h.47l4.05,6.71,1.05,1.8h.06c-.03-.89-.06-1.72-.06-2.58v-5.94h.42v9.15h-.47l-4.05-6.71-1.05-1.8h-.06c.03.86.06,1.64.06,2.5v6.02h-.42v-9.15Z"/>
    <path class="st0" d="M348.21,290.67c0-2.89,1.55-4.72,3.72-4.72s3.72,1.83,3.72,4.72-1.55,4.77-3.72,4.77-3.72-1.89-3.72-4.77ZM355.18,290.67c0-2.64-1.3-4.3-3.25-4.3s-3.25,1.66-3.25,4.3,1.3,4.35,3.25,4.35,3.25-1.72,3.25-4.35Z"/>
    <path class="st0" d="M357.81,286.12h2.52c1.8,0,2.94.67,2.94,2.36s-1.14,2.47-2.94,2.47h-2.08v4.33h-.44v-9.15ZM360.17,290.56c1.69,0,2.63-.67,2.63-2.08s-.94-1.97-2.63-1.97h-1.91v4.05h1.91ZM360.22,290.81l.5-.03,2.69,4.49h-.53l-2.66-4.47Z"/>
    <path class="st0" d="M367.07,286.51h-2.97v-.39h6.38v.39h-2.97v8.77h-.44v-8.77Z"/>
    <path class="st0" d="M372.29,286.12h4.91v.39h-4.47v3.69h3.74v.39h-3.74v4.3h4.6v.39h-5.05v-9.15Z"/>
    <path class="st0" d="M381.38,286.12h.39l3.27,9.15h-.47l-1.91-5.49c-.39-1.11-.72-2.05-1.05-3.19h-.05c-.33,1.14-.67,2.08-1.05,3.19l-1.94,5.49h-.44l3.27-9.15ZM379.52,291.61h4.06v.39h-4.06v-.39Z"/>
    <path class="st0" d="M386.57,286.12h.72l1.97,5.55c.25.69.5,1.39.75,2.08h.06c.25-.69.47-1.39.72-2.08l1.97-5.55h.72v9.15h-.44v-6.38c0-.72.03-1.64.06-2.39h-.06l-.71,2.02-2.07,5.71h-.47l-2.08-5.71-.72-2.02h-.06c.03.75.06,1.66.06,2.39v6.38h-.42v-9.15Z"/>
    <path class="st0" d="M396.25,286.12h4.91v.39h-4.47v3.69h3.75v.39h-3.75v4.3h4.6v.39h-5.05v-9.15Z"/>
    <path class="st0" d="M403.32,286.12h2.52c1.8,0,2.94.67,2.94,2.36s-1.14,2.47-2.94,2.47h-2.08v4.33h-.44v-9.15ZM405.68,290.56c1.69,0,2.63-.67,2.63-2.08s-.94-1.97-2.63-1.97h-1.91v4.05h1.91ZM405.73,290.81l.5-.03,2.69,4.49h-.53l-2.66-4.47Z"/>
    <path class="st0" d="M410.72,286.12h.44v9.15h-.44v-9.15Z"/>
    <path class="st0" d="M413.33,290.67c0-2.89,1.53-4.72,3.86-4.72,1.05,0,1.86.53,2.33,1.08l-.28.31c-.5-.58-1.19-.97-2.05-.97-2.11,0-3.38,1.66-3.38,4.3s1.28,4.35,3.33,4.35c.97,0,1.69-.39,2.39-1.17l.28.28c-.69.8-1.5,1.3-2.69,1.3-2.25,0-3.77-1.89-3.77-4.77Z"/>
    <path class="st0" d="M423.76,286.12h.39l3.27,9.15h-.47l-1.91-5.49c-.39-1.11-.72-2.05-1.05-3.19h-.05c-.33,1.14-.67,2.08-1.05,3.19l-1.94,5.49h-.44l3.27-9.15ZM421.9,291.61h4.06v.39h-4.06v-.39Z"/>
  </g>
  <g>
    <path class="st0" d="M340.06,259.91h4.91v.39h-4.47v3.69h3.74v.39h-3.74v4.3h4.6v.39h-5.05v-9.15Z"/>
    <path class="st0" d="M347.1,265.65v-5.74h.44v5.63c0,2.52,1.22,3.27,2.55,3.27s2.61-.75,2.61-3.27v-5.63h.42v5.74c0,2.83-1.55,3.58-3.02,3.58s-3-.75-3-3.58Z"/>
    <path class="st0" d="M355.87,259.91h2.52c1.8,0,2.94.67,2.94,2.36s-1.14,2.47-2.94,2.47h-2.08v4.33h-.44v-9.15ZM358.23,264.35c1.69,0,2.63-.67,2.63-2.08s-.94-1.97-2.63-1.97h-1.91v4.05h1.91ZM358.28,264.6l.5-.03,2.69,4.49h-.53l-2.66-4.47Z"/>
    <path class="st0" d="M362.66,264.46c0-2.89,1.55-4.72,3.72-4.72s3.72,1.83,3.72,4.72-1.55,4.77-3.72,4.77-3.72-1.89-3.72-4.77ZM369.63,264.46c0-2.64-1.3-4.3-3.25-4.3s-3.25,1.66-3.25,4.3,1.3,4.35,3.25,4.35,3.25-1.72,3.25-4.35Z"/>
    <path class="st0" d="M372.26,259.91h2.19c2.08,0,3.27.67,3.27,2.5s-1.17,2.61-3.22,2.61h-1.8v4.05h-.44v-9.15ZM374.34,264.62c1.97,0,2.91-.64,2.91-2.22s-.97-2.11-2.97-2.11h-1.58v4.33h1.64Z"/>
    <path class="st0" d="M381.11,259.91h.39l3.27,9.15h-.47l-1.91-5.49c-.39-1.11-.72-2.05-1.05-3.19h-.06c-.33,1.14-.67,2.08-1.05,3.19l-1.94,5.49h-.44l3.27-9.15ZM379.25,265.4h4.06v.39h-4.06v-.39Z"/>
  </g>
  <path class="st0" d="M40.65,240.48c3-3.08,4.44-4.74,4.44-6.33,0-1.14-.61-2.05-2.02-2.05-.83,0-1.58.5-2.14,1.19l-.3-.28c.64-.72,1.41-1.3,2.47-1.3,1.55,0,2.44.97,2.44,2.44,0,1.8-1.64,3.51-4.24,6.27.5-.03,1-.06,1.5-.06h3.19v.39h-5.33v-.28Z"/>
  <path class="st0" d="M40.48,267.44l.28-.3c.53.58,1.25,1.17,2.52,1.17s2.16-.83,2.16-2.08-.94-2.16-3.19-2.16v-.42c2.11,0,2.86-.92,2.86-2.03s-.75-1.75-1.89-1.75c-.83,0-1.58.44-2.08,1l-.28-.31c.58-.58,1.33-1.08,2.36-1.08,1.3,0,2.33.78,2.33,2.11,0,1.19-.75,1.9-1.72,2.22v.06c1.11.22,2.05,1.05,2.05,2.33,0,1.53-1.14,2.5-2.64,2.5-1.41,0-2.22-.67-2.77-1.25Z"/>
  <path class="st0" d="M44.39,289.68c0-.39.03-1.08.06-1.47h-.06c-.22.36-.47.67-.72,1.05l-2.8,3.91h5.3v.39h-5.88v-.22l4.24-5.94h.28v8.88h-.42v-6.6Z"/>
  <path class="st0" d="M40.42,323.02l.28-.3c.53.55,1.22,1.11,2.5,1.11s2.3-1.03,2.3-2.52-.89-2.41-2.27-2.41c-.69,0-1.17.25-1.69.61l-.36-.22.33-4.11h3.97v.39h-3.58l-.3,3.41c.47-.29.97-.5,1.66-.5,1.5,0,2.69.86,2.69,2.8s-1.39,2.94-2.77,2.94-2.19-.64-2.75-1.19Z"/>
  <g>
    <path class="st0" d="M460.29,36.04c0-2.94.92-4.58,2.58-4.58s2.58,1.64,2.58,4.58-.92,4.63-2.58,4.63-2.58-1.69-2.58-4.63ZM465,36.04c0-2.75-.83-4.19-2.14-4.19s-2.14,1.44-2.14,4.19.83,4.24,2.14,4.24,2.14-1.5,2.14-4.24Z"/>
    <path class="st0" d="M466.69,36.85h3v.42h-3v-.42Z"/>
    <path class="st0" d="M474.54,33.91c0-.39.03-1.08.06-1.47h-.06c-.22.36-.47.67-.72,1.05l-2.8,3.91h5.3v.39h-5.88v-.22l4.24-5.94h.28v8.88h-.42v-6.6Z"/>
  </g>
  <g>
    <path class="st0" d="M165.83,38.67c0-2.94.92-4.58,2.58-4.58s2.58,1.64,2.58,4.58-.92,4.63-2.58,4.63-2.58-1.69-2.58-4.63ZM170.55,38.67c0-2.75-.83-4.19-2.14-4.19s-2.14,1.44-2.14,4.19.83,4.24,2.14,4.24,2.14-1.5,2.14-4.24Z"/>
    <path class="st0" d="M172.35,44.88c.58-.33,1-.92,1-1.72l-.19-.75.47.58c-.11.19-.28.22-.44.22-.28,0-.5-.17-.5-.5s.25-.5.5-.5c.36,0,.61.33.61.86,0,.94-.56,1.69-1.28,2.14l-.17-.33Z"/>
    <path class="st0" d="M174.98,42.05l.28-.3c.53.58,1.25,1.17,2.52,1.17s2.16-.83,2.16-2.08-.94-2.16-3.19-2.16v-.42c2.11,0,2.86-.92,2.86-2.03s-.75-1.75-1.89-1.75c-.83,0-1.58.44-2.08,1l-.28-.31c.58-.58,1.33-1.08,2.36-1.08,1.3,0,2.33.78,2.33,2.11,0,1.19-.75,1.9-1.72,2.22v.06c1.11.22,2.05,1.05,2.05,2.33,0,1.53-1.14,2.5-2.64,2.5-1.41,0-2.22-.67-2.77-1.25Z"/>
  </g>
  <g>
    <path class="st0" d="M165.83,64.01c0-2.94.92-4.58,2.58-4.58s2.58,1.64,2.58,4.58-.92,4.63-2.58,4.63-2.58-1.69-2.58-4.63ZM170.55,64.01c0-2.75-.83-4.19-2.14-4.19s-2.14,1.44-2.14,4.19.83,4.24,2.14,4.24,2.14-1.5,2.14-4.24Z"/>
    <path class="st0" d="M172.35,70.22c.58-.33,1-.92,1-1.72l-.19-.75.47.58c-.11.19-.28.22-.44.22-.28,0-.5-.17-.5-.5s.25-.5.5-.5c.36,0,.61.33.61.86,0,.94-.56,1.69-1.28,2.14l-.17-.33Z"/>
    <path class="st0" d="M175.32,64.48c0-3.77,1.53-5.05,3.22-5.05.78,0,1.33.33,1.78.83l-.28.3c-.4-.5-.94-.75-1.53-.75-1.47,0-2.75,1.19-2.75,4.66,0,2.16.72,3.77,2.41,3.77,1.08,0,1.89-1.05,1.89-2.36s-.58-2.36-2.03-2.36c-.67,0-1.55.42-2.33,1.5v-.56c.64-.8,1.47-1.33,2.36-1.33,1.55,0,2.44.97,2.44,2.75,0,1.58-1.08,2.75-2.36,2.75-1.78,0-2.83-1.53-2.83-4.16Z"/>
  </g>
  <g>
    <path class="st0" d="M165.83,90.63c0-2.94.92-4.58,2.58-4.58s2.58,1.64,2.58,4.58-.92,4.63-2.58,4.63-2.58-1.69-2.58-4.63ZM170.55,90.63c0-2.75-.83-4.19-2.14-4.19s-2.14,1.44-2.14,4.19.83,4.24,2.14,4.24,2.14-1.5,2.14-4.24Z"/>
    <path class="st0" d="M172.35,96.84c.58-.33,1-.92,1-1.72l-.19-.75.47.58c-.11.19-.28.22-.44.22-.28,0-.5-.17-.5-.5s.25-.5.5-.5c.36,0,.61.33.61.86,0,.94-.56,1.69-1.28,2.14l-.17-.33Z"/>
    <path class="st0" d="M175.37,94.43l.28-.3c.4.5.94.75,1.53.75,1.47,0,2.75-1.19,2.75-4.66,0-2.16-.72-3.77-2.41-3.77-1.08,0-1.89,1.05-1.89,2.36s.58,2.36,2.02,2.36c.67,0,1.55-.42,2.33-1.5v.56c-.64.8-1.47,1.33-2.36,1.33-1.55,0-2.44-.97-2.44-2.75,0-1.58,1.08-2.75,2.36-2.75,1.78,0,2.83,1.53,2.83,4.16,0,3.77-1.53,5.05-3.22,5.05-.78,0-1.35-.33-1.78-.83Z"/>
  </g>
  <g>
    <path class="st0" d="M166.33,120.84h2.11v-7.66h-1.58v-.3c.69-.11,1.25-.31,1.64-.53h.36v8.49h1.97v.39h-4.49v-.39Z"/>
    <path class="st0" d="M172.35,122.97c.58-.33,1-.92,1-1.72l-.19-.75.47.58c-.11.19-.28.22-.44.22-.28,0-.5-.17-.5-.5s.25-.5.5-.5c.36,0,.61.33.61.86,0,.94-.56,1.69-1.28,2.14l-.17-.33Z"/>
    <path class="st0" d="M175.15,120.95c3-3.08,4.44-4.74,4.44-6.33,0-1.14-.61-2.05-2.02-2.05-.83,0-1.58.5-2.14,1.19l-.3-.28c.64-.72,1.41-1.3,2.47-1.3,1.55,0,2.44.97,2.44,2.44,0,1.8-1.64,3.51-4.24,6.27.5-.03,1-.06,1.5-.06h3.19v.39h-5.33v-.28Z"/>
  </g>
  <path class="st0" d="M168.19,147.47h-2.58v-.39h2.58v-2.83h.44v2.83h2.58v.39h-2.58v2.83h-.44v-2.83Z"/>
  <path class="st0" d="M165.69,27.53h3v.42h-3v-.42Z"/>
  <g>
    <path class="st0" d="M459.95,66.04l.28-.3c.53.55,1.22,1.11,2.5,1.11s2.3-1.03,2.3-2.52-.89-2.41-2.27-2.41c-.69,0-1.17.25-1.69.61l-.36-.22.33-4.11h3.97v.39h-3.58l-.3,3.41c.47-.29.97-.5,1.66-.5,1.5,0,2.69.86,2.69,2.8s-1.39,2.94-2.77,2.94-2.19-.64-2.75-1.19Z"/>
    <path class="st0" d="M466.69,63.4h3v.42h-3v-.42Z"/>
    <path class="st0" d="M470.77,64.79c0-1.22.97-2.11,1.8-2.55v-.05c-.64-.42-1.28-1.08-1.28-2.03,0-1.25,1-2.14,2.25-2.14,1.5,0,2.36,1,2.36,2.3,0,1-.78,1.89-1.28,2.3v.06c.75.47,1.55,1.05,1.55,2.25,0,1.28-1.05,2.3-2.63,2.3s-2.77-1.05-2.77-2.44ZM475.73,64.93c0-1.44-1.42-1.94-2.83-2.5-.97.55-1.69,1.33-1.69,2.36,0,1.14.97,2.05,2.33,2.05s2.19-.86,2.19-1.91ZM475.46,60.32c0-1.03-.69-1.91-1.91-1.91-1.05,0-1.8.75-1.8,1.75,0,1.33,1.28,1.86,2.47,2.33.8-.64,1.25-1.36,1.25-2.16Z"/>
  </g>
  <g>
    <path class="st0" d="M453.85,92.63l.28-.3c.4.5.94.75,1.53.75,1.47,0,2.75-1.19,2.75-4.66,0-2.16-.72-3.77-2.41-3.77-1.08,0-1.89,1.05-1.89,2.36s.58,2.36,2.02,2.36c.67,0,1.55-.42,2.33-1.5v.56c-.64.8-1.47,1.33-2.36,1.33-1.55,0-2.44-.97-2.44-2.75,0-1.58,1.08-2.75,2.36-2.75,1.78,0,2.83,1.53,2.83,4.16,0,3.77-1.53,5.05-3.22,5.05-.78,0-1.35-.33-1.78-.83Z"/>
    <path class="st0" d="M460.15,89.63h3v.42h-3v-.42Z"/>
    <path class="st0" d="M464.86,92.91h2.11v-7.66h-1.58v-.3c.69-.11,1.25-.31,1.64-.53h.36v8.49h1.97v.39h-4.49v-.39Z"/>
    <path class="st0" d="M470.8,93.02c3-3.08,4.44-4.74,4.44-6.33,0-1.14-.61-2.05-2.02-2.05-.83,0-1.58.5-2.14,1.19l-.3-.28c.64-.72,1.42-1.3,2.47-1.3,1.55,0,2.44.97,2.44,2.44,0,1.8-1.64,3.51-4.24,6.27.5-.03,1-.06,1.5-.06h3.19v.39h-5.33v-.28Z"/>
  </g>
  <g>
    <path class="st0" d="M447.7,118.35h2.11v-7.66h-1.58v-.3c.69-.11,1.25-.31,1.64-.53h.36v8.49h1.97v.39h-4.49v-.39Z"/>
    <path class="st0" d="M453.46,117.65l.28-.3c.53.58,1.25,1.17,2.52,1.17s2.16-.83,2.16-2.08-.94-2.16-3.19-2.16v-.42c2.11,0,2.86-.92,2.86-2.03s-.75-1.75-1.89-1.75c-.83,0-1.58.44-2.08,1l-.28-.31c.58-.58,1.33-1.08,2.36-1.08,1.3,0,2.33.78,2.33,2.11,0,1.19-.75,1.9-1.72,2.22v.06c1.11.22,2.05,1.05,2.05,2.33,0,1.53-1.14,2.5-2.63,2.5-1.42,0-2.22-.67-2.77-1.25Z"/>
    <path class="st0" d="M460.15,115.07h3v.42h-3v-.42Z"/>
    <path class="st0" d="M464.86,118.35h2.11v-7.66h-1.58v-.3c.69-.11,1.25-.31,1.64-.53h.36v8.49h1.97v.39h-4.49v-.39Z"/>
    <path class="st0" d="M470.96,114.74c0-3.77,1.53-5.05,3.22-5.05.78,0,1.33.33,1.78.83l-.28.3c-.4-.5-.94-.75-1.53-.75-1.47,0-2.75,1.19-2.75,4.66,0,2.16.72,3.77,2.41,3.77,1.08,0,1.89-1.05,1.89-2.36s-.58-2.36-2.03-2.36c-.67,0-1.55.42-2.33,1.5v-.56c.64-.8,1.47-1.33,2.36-1.33,1.55,0,2.44.97,2.44,2.75,0,1.58-1.08,2.75-2.36,2.75-1.78,0-2.83-1.53-2.83-4.16Z"/>
  </g>
  <g>
    <path class="st0" d="M447.7,145.48h2.11v-7.66h-1.58v-.3c.69-.11,1.25-.31,1.64-.53h.36v8.49h1.97v.39h-4.49v-.39Z"/>
    <path class="st0" d="M458.43,137.38h-4.77v-.39h5.35v.25c-2.14,2.86-2.69,5.16-2.83,8.63h-.47c.14-3.66.92-5.96,2.72-8.49Z"/>
    <path class="st0" d="M460.15,142.21h3v.42h-3v-.42Z"/>
    <path class="st0" d="M464.25,145.59c3-3.08,4.44-4.74,4.44-6.33,0-1.14-.61-2.05-2.02-2.05-.83,0-1.58.5-2.14,1.19l-.3-.28c.64-.72,1.42-1.3,2.47-1.3,1.55,0,2.44.97,2.44,2.44,0,1.8-1.64,3.51-4.24,6.27.5-.03,1-.06,1.5-.06h3.19v.39h-5.33v-.28Z"/>
    <path class="st0" d="M470.91,141.41c0-2.94.92-4.58,2.58-4.58s2.58,1.64,2.58,4.58-.92,4.63-2.58,4.63-2.58-1.69-2.58-4.63ZM475.62,141.41c0-2.75-.83-4.19-2.14-4.19s-2.14,1.44-2.14,4.19.83,4.24,2.14,4.24,2.14-1.5,2.14-4.24Z"/>
  </g>
  <g>
    <path class="st0" d="M163.57,8.25h1.33l3.06,9.1h-1.25l-1.57-5.08c-.32-1.01-.62-2.01-.9-3.07h-.05c-.29,1.05-.58,2.05-.9,3.07l-1.59,5.08h-1.19l3.06-9.1ZM162.13,13.64h4.17v.94h-4.17v-.94Z"/>
    <path class="st0" d="M170.25,8.25h1.15v8.11h4.49v.98h-5.64v-9.1Z"/>
    <path class="st0" d="M177.71,8.25h1.42l1.28,3.88.44,1.47h.06l.43-1.47,1.29-3.88h1.42v9.1h-1.11v-4.55c0-.89.14-2.44.19-3.22h-.04l-.51,1.78-1.3,3.58h-.83l-1.28-3.58-.53-1.78h-.03c.08.78.19,2.33.19,3.22v4.55h-1.08v-9.1Z"/>
    <path class="st0" d="M188.53,8.25h1.33l3.07,9.1h-1.25l-1.57-5.08c-.32-1.01-.62-2.01-.9-3.07h-.05c-.29,1.05-.58,2.05-.9,3.07l-1.59,5.08h-1.19l3.06-9.1ZM187.09,13.64h4.17v.94h-4.17v-.94Z"/>
    <path class="st0" d="M194.25,12.8c0-2.93,1.71-4.72,4.08-4.72,1.1,0,1.96.53,2.5,1.11l-.67.73c-.47-.5-1.07-.82-1.83-.82-1.73,0-2.87,1.4-2.87,3.66s1.14,3.72,2.87,3.72c.83,0,1.47-.36,2.04-1l.67.71c-.71.83-1.61,1.32-2.82,1.32-2.25,0-3.97-1.75-3.97-4.72Z"/>
    <path class="st0" d="M203.25,8.25h5.63v.98h-4.47v2.84h3.77v.98h-3.77v3.3h4.61v.98h-5.77v-9.1Z"/>
    <path class="st0" d="M211.13,8.25h1.28l2.91,5.71.87,1.89h.03c-.04-.9-.15-1.93-.15-2.88v-4.72h1.11v9.1h-1.28l-2.91-5.71-.87-1.89h-.03c.04.93.15,1.9.15,2.84v4.76h-1.11v-9.1Z"/>
    <path class="st0" d="M221.81,8.25h1.33l3.07,9.1h-1.25l-1.57-5.08c-.32-1.01-.62-2.01-.9-3.07h-.05c-.29,1.05-.58,2.05-.9,3.07l-1.59,5.08h-1.19l3.06-9.1ZM220.37,13.64h4.17v.94h-4.17v-.94Z"/>
    <path class="st0" d="M227.63,8.25h1.41l1.28,3.88.44,1.47h.05l.43-1.47,1.29-3.88h1.41v9.1h-1.11v-4.55c0-.89.14-2.44.19-3.22h-.04l-.51,1.78-1.3,3.58h-.83l-1.28-3.58-.53-1.78h-.03c.08.78.2,2.33.2,3.22v4.55h-1.08v-9.1Z"/>
    <path class="st0" d="M236.27,16.36h2.26v-7.13h-2.26v-.98h5.69v.98h-2.26v7.13h2.26v.98h-5.69v-.98Z"/>
    <path class="st0" d="M244.85,8.25h5.63v.98h-4.47v2.84h3.77v.98h-3.77v3.3h4.61v.98h-5.77v-9.1Z"/>
    <path class="st0" d="M252.73,8.25h1.28l2.91,5.71.87,1.89h.03c-.04-.9-.15-1.93-.15-2.88v-4.72h1.11v9.1h-1.28l-2.91-5.71-.88-1.89h-.03c.04.93.15,1.9.15,2.84v4.76h-1.11v-9.1Z"/>
    <path class="st0" d="M263.49,9.23h-3.01v-.98h7.18v.98h-3.01v8.11h-1.16v-8.11Z"/>
    <path class="st0" d="M268.9,12.76c0-2.94,1.44-4.67,3.5-4.67s3.49,1.73,3.49,4.67-1.44,4.76-3.49,4.76-3.5-1.78-3.5-4.76ZM274.68,12.76c0-2.29-.92-3.65-2.29-3.65s-2.29,1.36-2.29,3.65.92,3.73,2.29,3.73,2.29-1.4,2.29-3.73Z"/>
    <path class="st0" d="M279.44,13.49c0-2.68,1.18-4.8,3.11-6.3l.64.58c-1.86,1.57-2.72,3.38-2.72,5.71s.86,4.15,2.72,5.71l-.64.58c-1.93-1.5-3.11-3.62-3.11-6.3Z"/>
    <path class="st0" d="M285.61,12.8c0-2.94,1.68-4.72,4.04-4.72,1.21,0,2,.57,2.51,1.11l-.67.73c-.43-.46-.97-.82-1.84-.82-1.71,0-2.82,1.4-2.82,3.66s1.01,3.72,2.79,3.72c.64,0,1.23-.19,1.57-.53v-2.37h-1.8v-.96h2.88v3.83c-.57.58-1.54,1.05-2.72,1.05-2.29,0-3.94-1.75-3.94-4.72Z"/>
    <path class="st0" d="M294.56,8.25h2.58c1.86,0,3.12.62,3.12,2.22,0,.9-.51,1.71-1.59,1.98v.06c1.33.21,2.11.93,2.11,2.18,0,1.79-1.39,2.66-3.43,2.66h-2.79v-9.1ZM296.95,12.08c1.55,0,2.18-.5,2.18-1.51s-.72-1.35-2.12-1.35h-1.29v2.86h1.23ZM297.19,16.38c1.55,0,2.46-.51,2.46-1.75,0-1.12-.86-1.58-2.46-1.58h-1.47v3.33h1.47Z"/>
    <path class="st0" d="M303.2,19.21c1.86-1.57,2.72-3.38,2.72-5.71s-.86-4.15-2.72-5.71l.64-.58c1.93,1.5,3.11,3.62,3.11,6.3s-1.18,4.8-3.11,6.3l-.64-.58Z"/>
  </g>
  <g>
    <path class="st0" d="M394.15,8.25h1.33l3.06,9.1h-1.25l-1.57-5.08c-.32-1.01-.62-2.01-.9-3.07h-.05c-.29,1.05-.58,2.05-.9,3.07l-1.59,5.08h-1.19l3.06-9.1ZM392.71,13.64h4.17v.94h-4.17v-.94Z"/>
    <path class="st0" d="M400.11,8.25h1.28l2.91,5.71.88,1.89h.03c-.04-.9-.15-1.93-.15-2.88v-4.72h1.11v9.1h-1.28l-2.91-5.71-.87-1.89h-.03c.04.93.15,1.9.15,2.84v4.76h-1.11v-9.1ZM402.26,6.54c-.35,0-.61.32-.67.9l-.78-.06c.04-1.07.58-1.71,1.41-1.71,1.04,0,1.4.99,2.05.99.35,0,.6-.32.67-.92l.78.06c-.04,1.07-.58,1.71-1.42,1.71-1.04,0-1.4-.97-2.05-.97Z"/>
    <path class="st0" d="M407.96,12.76c0-2.94,1.44-4.67,3.5-4.67s3.5,1.73,3.5,4.67-1.44,4.76-3.5,4.76-3.5-1.78-3.5-4.76ZM413.75,12.76c0-2.29-.92-3.65-2.29-3.65s-2.29,1.36-2.29,3.65.92,3.73,2.29,3.73,2.29-1.4,2.29-3.73Z"/>
    <path class="st0" d="M416.55,16.17l.69-.8c.69.68,1.64,1.12,2.66,1.12,1.25,0,1.97-.6,1.97-1.43,0-.97-.71-1.25-1.62-1.64l-1.32-.58c-.9-.36-1.96-1-1.96-2.34s1.25-2.41,2.98-2.41c1.14,0,2.14.46,2.8,1.12l-.61.75c-.6-.53-1.29-.85-2.23-.85-1.05,0-1.76.5-1.76,1.32,0,.87.85,1.19,1.62,1.5l1.28.57c1.12.44,2.01,1.08,2.01,2.43,0,1.44-1.22,2.59-3.22,2.59-1.33,0-2.48-.53-3.3-1.34Z"/>
    <path class="st0" d="M435.75,8.25h1.33l3.06,9.1h-1.25l-1.57-5.08c-.32-1.01-.62-2.01-.9-3.07h-.06c-.29,1.05-.58,2.05-.9,3.07l-1.6,5.08h-1.19l3.07-9.1ZM434.31,13.64h4.18v.94h-4.18v-.94Z"/>
    <path class="st0" d="M441.48,12.8c0-2.93,1.71-4.72,4.08-4.72,1.1,0,1.96.53,2.5,1.11l-.66.73c-.47-.5-1.07-.82-1.83-.82-1.73,0-2.87,1.4-2.87,3.66s1.14,3.72,2.87,3.72c.83,0,1.47-.36,2.04-1l.67.71c-.71.83-1.61,1.32-2.82,1.32-2.25,0-3.97-1.75-3.97-4.72Z"/>
    <path class="st0" d="M452.47,9.23h-3.01v-.98h7.19v.98h-3.01v8.11h-1.16v-8.11Z"/>
    <path class="st0" d="M458.53,16.36h2.26v-7.13h-2.26v-.98h5.69v.98h-2.26v7.13h2.26v.98h-5.69v-.98Z"/>
    <path class="st0" d="M466.12,8.25h1.25l1.46,4.91c.32,1.07.54,1.94.88,3h.05c.33-1.05.57-1.93.88-3l1.46-4.91h1.19l-2.88,9.1h-1.36l-2.91-9.1Z"/>
    <path class="st0" d="M474.52,12.76c0-2.94,1.44-4.67,3.49-4.67s3.5,1.73,3.5,4.67-1.44,4.76-3.5,4.76-3.49-1.78-3.49-4.76ZM480.3,12.76c0-2.29-.92-3.65-2.29-3.65s-2.29,1.36-2.29,3.65.92,3.73,2.29,3.73,2.29-1.4,2.29-3.73Z"/>
  </g>
  <g>
    <path class="st0" d="M12.62,178.32h1.33l3.07,9.1h-1.25l-1.57-5.08c-.32-1.01-.62-2.01-.9-3.07h-.06c-.29,1.05-.58,2.05-.9,3.07l-1.59,5.08h-1.19l3.07-9.1ZM11.18,183.71h4.17v.94h-4.17v-.94Z"/>
    <path class="st0" d="M18.65,178.32h2.25c2.73,0,4.22,1.62,4.22,4.51s-1.48,4.59-4.16,4.59h-2.3v-9.1ZM20.82,186.46c2.07,0,3.09-1.33,3.09-3.63s-1.03-3.55-3.09-3.55h-1v7.18h1Z"/>
    <path class="st0" d="M27.08,186.43h2.26v-7.13h-2.26v-.98h5.69v.98h-2.26v7.13h2.26v.98h-5.69v-.98Z"/>
    <path class="st0" d="M34.99,182.87c0-2.93,1.71-4.72,4.08-4.72,1.1,0,1.96.53,2.5,1.11l-.67.73c-.47-.5-1.07-.82-1.83-.82-1.73,0-2.87,1.4-2.87,3.66s1.14,3.72,2.87,3.72c.83,0,1.47-.36,2.04-1l.67.71c-.71.83-1.61,1.32-2.82,1.32-2.25,0-3.97-1.75-3.97-4.72Z"/>
    <path class="st0" d="M45.98,179.3h-3.01v-.98h7.19v.98h-3.01v8.11h-1.17v-8.11Z"/>
    <path class="st0" d="M52.04,186.43h2.26v-7.13h-2.26v-.98h5.69v.98h-2.26v7.13h2.26v.98h-5.69v-.98Z"/>
    <path class="st0" d="M59.63,178.32h1.25l1.46,4.91c.32,1.07.54,1.94.87,3h.06c.33-1.05.57-1.93.87-3l1.46-4.91h1.19l-2.88,9.1h-1.36l-2.91-9.1Z"/>
    <path class="st0" d="M68.68,186.43h2.26v-7.13h-2.26v-.98h5.69v.98h-2.26v7.13h2.26v.98h-5.69v-.98Z"/>
    <path class="st0" d="M76.89,178.32h2.25c2.73,0,4.22,1.62,4.22,4.51s-1.48,4.59-4.16,4.59h-2.3v-9.1ZM79.06,186.46c2.07,0,3.09-1.33,3.09-3.63s-1.03-3.55-3.09-3.55h-1v7.18h1Z"/>
    <path class="st0" d="M87.5,178.32h1.33l3.07,9.1h-1.25l-1.57-5.08c-.32-1.01-.62-2.01-.9-3.07h-.06c-.29,1.05-.58,2.05-.9,3.07l-1.59,5.08h-1.19l3.07-9.1ZM86.06,183.71h4.17v.94h-4.17v-.94Z"/>
    <path class="st0" d="M93.53,178.32h2.25c2.73,0,4.22,1.62,4.22,4.51s-1.48,4.59-4.16,4.59h-2.3v-9.1ZM95.7,186.46c2.07,0,3.09-1.33,3.09-3.63s-1.03-3.55-3.09-3.55h-1v7.18h1Z"/>
  </g>
  <g>
    <path class="st0" d="M398.12,182.87c0-2.93,1.71-4.72,4.08-4.72,1.1,0,1.96.53,2.5,1.11l-.67.73c-.47-.5-1.07-.82-1.83-.82-1.73,0-2.87,1.4-2.87,3.66s1.14,3.72,2.87,3.72c.83,0,1.47-.36,2.04-1l.67.71c-.71.83-1.61,1.32-2.82,1.32-2.25,0-3.97-1.75-3.97-4.72Z"/>
    <path class="st0" d="M406.21,182.83c0-2.94,1.44-4.67,3.5-4.67s3.5,1.73,3.5,4.67-1.44,4.76-3.5,4.76-3.5-1.78-3.5-4.76ZM411.99,182.83c0-2.29-.92-3.65-2.29-3.65s-2.29,1.36-2.29,3.65.92,3.73,2.29,3.73,2.29-1.4,2.29-3.73Z"/>
    <path class="st0" d="M415,178.32h1.28l2.91,5.71.87,1.89h.03c-.04-.9-.15-1.93-.15-2.88v-4.72h1.11v9.1h-1.28l-2.91-5.71-.87-1.89h-.03c.04.93.15,1.9.15,2.84v4.76h-1.11v-9.1Z"/>
    <path class="st0" d="M425.76,179.3h-3.01v-.98h7.19v.98h-3.01v8.11h-1.17v-8.11Z"/>
    <path class="st0" d="M431.82,186.43h2.26v-7.13h-2.26v-.98h5.69v.98h-2.26v7.13h2.26v.98h-5.69v-.98Z"/>
    <path class="st0" d="M439.96,178.32h1.28l2.91,5.71.87,1.89h.03c-.04-.9-.15-1.93-.15-2.88v-4.72h1.11v9.1h-1.28l-2.91-5.71-.87-1.89h-.03c.04.93.15,1.9.15,2.84v4.76h-1.11v-9.1Z"/>
    <path class="st0" d="M448.72,178.32h5.63v.98h-4.47v2.84h3.77v.98h-3.77v3.3h4.61v.98h-5.77v-9.1Z"/>
    <path class="st0" d="M456.6,178.32h1.28l2.91,5.71.87,1.89h.03c-.04-.9-.15-1.93-.15-2.88v-4.72h1.11v9.1h-1.28l-2.91-5.71-.87-1.89h-.03c.04.93.15,1.9.15,2.84v4.76h-1.11v-9.1Z"/>
    <path class="st0" d="M467.36,179.3h-3.01v-.98h7.19v.98h-3.01v8.11h-1.17v-8.11Z"/>
    <path class="st0" d="M473.68,178.32h5.63v.98h-4.47v2.84h3.77v.98h-3.77v3.3h4.61v.98h-5.77v-9.1Z"/>
  </g>
  <rect class="st11" x="9.56" y="201.03" width="22.86" height="22.25"/>
  <rect class="st9" x="9.56" y="227.23" width="22.86" height="22.25"/>
  <rect class="st12" x="9.56" y="253.42" width="22.86" height="22.25"/>
  <rect class="st10" x="9.56" y="279.61" width="22.86" height="22.25"/>
  <rect class="st13" x="9.56" y="305.81" width="22.86" height="22.25"/>
  <rect class="st8" x="453.05" y="24.83" width="29.46" height="22.25"/>
  <rect class="st8" x="422.59" y="51.02" width="58.92" height="22.25"/>
  <rect class="st8" x="393.12" y="77.21" width="88.39" height="22.25"/>
  <rect class="st8" x="363.66" y="103.41" width="117.85" height="22.25"/>
  <rect class="st8" x="334.2" y="129.6" width="147.31" height="22.25"/>
  <rect class="st1" x="191.97" y="129.6" width="114.98" height="22.25"/>
  <rect class="st1" x="191.97" y="103.41" width="114.98" height="22.25"/>
  <rect class="st1" x="191.97" y="77.21" width="114.98" height="22.25"/>
  <rect class="st1" x="191.97" y="51.02" width="114.98" height="22.25"/>
  <rect class="st1" x="191.97" y="24.83" width="114.98" height="22.25"/>
  <rect class="st4" x="334.2" y="201.03" width="147.31" height="22.25"/>
  <rect class="st7" x="334.2" y="227.23" width="147.31" height="22.25"/>
  <rect class="st6" x="334.2" y="253.42" width="147.31" height="22.25"/>
  <rect class="st5" x="334.2" y="279.61" width="147.31" height="22.25"/>
  <rect class="st3" x="334.2" y="305.81" width="147.31" height="22.25"/>
  <g>
    <rect class="st0" x="9.56" y="24.83" width="7.62" height="7.42"/>
    <rect class="st0" x="24.79" y="24.83" width="7.62" height="7.42"/>
    <rect class="st0" x="17.18" y="32.25" width="7.62" height="7.42"/>
    <rect class="st0" x="9.56" y="39.66" width="7.62" height="7.42"/>
    <rect class="st0" x="24.79" y="39.66" width="7.62" height="7.42"/>
  </g>
  <g>
    <rect class="st0" x="9.56" y="51.02" width="7.62" height="7.42"/>
    <rect class="st0" x="9.56" y="58.44" width="7.62" height="7.42"/>
    <rect class="st0" x="24.79" y="51.02" width="7.62" height="7.42"/>
    <rect class="st0" x="24.79" y="58.44" width="7.62" height="7.42"/>
    <rect class="st0" x="17.18" y="65.86" width="7.62" height="7.42"/>
    <rect class="st0" x="24.79" y="65.86" width="7.62" height="7.42"/>
  </g>
  <g>
    <rect class="st0" x="9.56" y="77.21" width="7.62" height="7.42"/>
    <rect class="st0" x="9.56" y="84.63" width="7.62" height="7.42"/>
    <rect class="st0" x="24.79" y="77.21" width="7.62" height="7.42"/>
    <rect class="st0" x="24.79" y="84.63" width="7.62" height="7.42"/>
    <rect class="st0" x="17.18" y="92.05" width="7.62" height="7.42"/>
    <rect class="st0" x="17.18" y="77.21" width="7.62" height="7.42"/>
    <rect class="st0" x="9.56" y="92.05" width="7.62" height="7.42"/>
    <rect class="st0" x="24.79" y="92.05" width="7.62" height="7.42"/>
  </g>
  <g>
    <rect class="st0" x="9.56" y="103.41" width="7.62" height="7.42"/>
    <rect class="st0" x="9.56" y="110.82" width="7.62" height="7.42"/>
    <rect class="st0" x="24.79" y="110.82" width="7.62" height="7.42"/>
    <rect class="st0" x="17.18" y="118.24" width="7.62" height="7.42"/>
    <rect class="st0" x="17.18" y="103.41" width="7.62" height="7.42"/>
    <rect class="st0" x="24.79" y="118.24" width="7.62" height="7.42"/>
  </g>
  <g>
    <rect class="st0" x="17.18" y="137.02" width="7.62" height="7.42"/>
    <rect class="st0" x="9.56" y="137.02" width="7.62" height="7.42"/>
    <rect class="st0" x="24.79" y="137.02" width="7.62" height="7.42"/>
    <rect class="st0" x="17.18" y="144.43" width="7.62" height="7.42"/>
    <rect class="st0" x="17.18" y="129.6" width="7.62" height="7.42"/>
    <rect class="st0" x="9.56" y="144.43" width="7.62" height="7.42"/>
  </g>
  <line class="st2" x1="306.95" y1="47.08" x2="160.5" y2="47.08"/>
  <line class="st2" x1="306.95" y1="73.27" x2="160.5" y2="73.27"/>
  <line class="st2" x1="306.95" y1="99.47" x2="160.5" y2="99.47"/>
  <line class="st2" x1="306.95" y1="125.66" x2="160.5" y2="125.66"/>
</svg>