<?xml version="1.0" encoding="UTF-8"?>
<svg id="Capa_1" xmlns="http://www.w3.org/2000/svg" version="1.1" viewBox="0 0 497.36 154.21">
  <!-- Generator: Adobe Illustrator 29.0.0, SVG Export Plug-In . SVG Version: 2.1.0 Build 186)  -->
  <defs>
    <style>
      .st0 {
        fill: #fff;
      }

      .st1 {
        stroke: #fff;
      }

      .st1, .st2, .st3, .st4, .st5, .st6 {
        fill: none;
        stroke-miterlimit: 10;
      }

      .st7 {
        fill: #9200b8;
      }

      .st8 {
        fill: #ff9a51;
      }

      .st9 {
        fill: #000aff;
      }

      .st2 {
        stroke: #000aff;
      }

      .st10 {
        fill: #e92fed;
      }

      .st3 {
        stroke: #9200b8;
      }

      .st11 {
        fill: #ffe86f;
      }

      .st4 {
        stroke: #ff9a51;
      }

      .st5 {
        stroke: #ffe86f;
      }

      .st6 {
        stroke: #e92fed;
      }
    </style>
  </defs>
  <g>
    <path class="st0" d="M155.66,36.04h2.09v-7.35h-1.59v-.42c.72-.12,1.29-.32,1.7-.56h.5v8.33h1.93v.54h-4.63v-.54Z"/>
    <path class="st0" d="M155.07,61.22c2.9-2.96,4.36-4.61,4.36-6.15,0-1.1-.59-1.96-1.93-1.96-.81,0-1.53.49-2.07,1.16l-.4-.38c.67-.75,1.45-1.32,2.53-1.32,1.58,0,2.5.99,2.5,2.49,0,1.76-1.61,3.46-4.07,6.06.49-.03,1.01-.06,1.5-.06h3.02v.55h-5.43v-.39Z"/>
    <path class="st0" d="M154.9,88.29l.36-.42c.53.57,1.24,1.13,2.45,1.13s2.08-.78,2.08-1.96-.88-2.05-3.09-2.05v-.54c2.04,0,2.76-.86,2.76-1.92,0-1-.71-1.65-1.79-1.65-.81,0-1.52.42-2.03.97l-.37-.42c.61-.6,1.38-1.09,2.41-1.09,1.37,0,2.42.79,2.42,2.15,0,1.16-.72,1.86-1.69,2.19v.06c1.1.23,2.02,1.05,2.02,2.31,0,1.54-1.18,2.5-2.71,2.5-1.42,0-2.24-.65-2.81-1.25Z"/>
    <path class="st0" d="M158.79,110.71c0-.41.03-1.12.06-1.53h-.06c-.22.38-.47.7-.72,1.11l-2.6,3.67h5.23v.53h-5.98v-.37l4.12-5.86h.55v8.87h-.6v-6.42Z"/>
    <path class="st0" d="M154.85,143.86l.36-.42c.53.55,1.21,1.08,2.42,1.08s2.2-.96,2.2-2.39-.85-2.29-2.17-2.29c-.67,0-1.12.23-1.64.59l-.43-.27.32-4.15h4.09v.55h-3.54l-.29,3.2c.45-.27.93-.46,1.58-.46,1.5,0,2.71.86,2.71,2.79s-1.4,2.96-2.83,2.96-2.22-.63-2.79-1.2Z"/>
    <g>
      <path class="st0" d="M126.77,5.31h1.33l3.07,9.1h-1.25l-1.57-5.08c-.32-1.01-.62-2.01-.9-3.07h-.06c-.29,1.05-.58,2.05-.9,3.07l-1.59,5.08h-1.19l3.07-9.1ZM125.33,10.7h4.17v.94h-4.17v-.94Z"/>
      <path class="st0" d="M132.8,5.31h2.25c2.73,0,4.22,1.62,4.22,4.51s-1.48,4.59-4.16,4.59h-2.3V5.31ZM134.96,13.45c2.07,0,3.09-1.33,3.09-3.63s-1.03-3.55-3.09-3.55h-1v7.18h1Z"/>
      <path class="st0" d="M141.23,13.42h2.26v-7.13h-2.26v-.98h5.69v.98h-2.26v7.13h2.26v.98h-5.69v-.98Z"/>
      <path class="st0" d="M149.13,9.85c0-2.93,1.71-4.72,4.08-4.72,1.1,0,1.96.53,2.5,1.11l-.67.73c-.47-.5-1.07-.82-1.83-.82-1.73,0-2.87,1.4-2.87,3.66s1.14,3.72,2.87,3.72c.83,0,1.47-.36,2.04-1l.67.71c-.71.83-1.61,1.32-2.82,1.32-2.25,0-3.97-1.75-3.97-4.72Z"/>
      <path class="st0" d="M160.13,6.29h-3.01v-.98h7.19v.98h-3.01v8.11h-1.17V6.29Z"/>
      <path class="st0" d="M166.19,13.42h2.26v-7.13h-2.26v-.98h5.69v.98h-2.26v7.13h2.26v.98h-5.69v-.98Z"/>
      <path class="st0" d="M173.77,5.31h1.25l1.46,4.91c.32,1.07.54,1.94.87,3h.06c.33-1.05.57-1.93.87-3l1.46-4.91h1.19l-2.88,9.1h-1.36l-2.91-9.1Z"/>
      <path class="st0" d="M182.83,13.42h2.26v-7.13h-2.26v-.98h5.69v.98h-2.26v7.13h2.26v.98h-5.69v-.98Z"/>
      <path class="st0" d="M191.04,5.31h2.25c2.73,0,4.22,1.62,4.22,4.51s-1.48,4.59-4.16,4.59h-2.3V5.31ZM193.2,13.45c2.07,0,3.09-1.33,3.09-3.63s-1.03-3.55-3.09-3.55h-1v7.18h1Z"/>
      <path class="st0" d="M201.65,5.31h1.33l3.07,9.1h-1.25l-1.57-5.08c-.32-1.01-.62-2.01-.9-3.07h-.06c-.29,1.05-.58,2.05-.9,3.07l-1.59,5.08h-1.19l3.07-9.1ZM200.2,10.7h4.17v.94h-4.17v-.94Z"/>
      <path class="st0" d="M207.68,5.31h2.25c2.73,0,4.22,1.62,4.22,4.51s-1.48,4.59-4.16,4.59h-2.3V5.31ZM209.84,13.45c2.07,0,3.09-1.33,3.09-3.63s-1.03-3.55-3.09-3.55h-1v7.18h1Z"/>
    </g>
    <rect class="st9" x="123.99" y="21.89" width="22.86" height="22.25"/>
    <rect class="st7" x="123.99" y="48.08" width="22.86" height="22.25"/>
    <rect class="st10" x="123.99" y="74.27" width="22.86" height="22.25"/>
    <rect class="st8" x="123.99" y="100.46" width="22.86" height="22.25"/>
    <rect class="st11" x="123.99" y="126.66" width="22.86" height="22.25"/>
  </g>
  <g>
    <g>
      <path class="st0" d="M269.57,27.37h.64l3.22,9.14h-.68l-1.83-5.38c-.37-1.08-.69-2.04-1.02-3.16h-.06c-.32,1.11-.64,2.07-1.01,3.16l-1.85,5.38h-.64l3.22-9.14ZM267.82,32.83h4.1v.53h-4.1v-.53Z"/>
      <path class="st0" d="M274.86,27.37h4.98v.55h-4.34v3.64h3.67v.55h-3.67v4.4h-.64v-9.14Z"/>
      <path class="st0" d="M281.48,27.37h2.61c1.82,0,3.01.67,3.01,2.41s-1.19,2.53-3.01,2.53h-1.97v4.2h-.64v-9.14ZM283.92,31.77c1.62,0,2.52-.64,2.52-1.99s-.9-1.88-2.52-1.88h-1.81v3.87h1.81ZM283.95,32.12l.61-.18,2.71,4.57h-.74l-2.58-4.38Z"/>
      <path class="st0" d="M289.02,27.37h.64v9.14h-.64v-9.14Z"/>
      <path class="st0" d="M291.76,31.92c0-2.9,1.58-4.72,3.91-4.72,1.07,0,1.89.53,2.38,1.09l-.37.43c-.49-.56-1.16-.94-2-.94-2,0-3.24,1.6-3.24,4.13s1.23,4.18,3.19,4.18c.94,0,1.65-.39,2.31-1.13l.37.4c-.7.81-1.53,1.31-2.72,1.31-2.25,0-3.83-1.85-3.83-4.75Z"/>
      <path class="st0" d="M302.15,27.37h.64l3.22,9.14h-.68l-1.83-5.38c-.37-1.08-.69-2.04-1.02-3.16h-.06c-.32,1.11-.64,2.07-1.01,3.16l-1.85,5.38h-.64l3.22-9.14ZM300.4,32.83h4.1v.53h-4.1v-.53Z"/>
    </g>
    <g>
      <path class="st0" d="M269.57,54.5h.64l3.22,9.14h-.68l-1.83-5.38c-.37-1.08-.69-2.04-1.02-3.16h-.06c-.32,1.11-.64,2.07-1.01,3.16l-1.85,5.38h-.64l3.22-9.14ZM267.82,59.97h4.1v.53h-4.1v-.53Z"/>
      <path class="st0" d="M274.17,62.43l.41-.44c.66.75,1.62,1.24,2.68,1.24,1.4,0,2.27-.75,2.27-1.84s-.74-1.5-1.64-1.91l-1.39-.62c-.8-.35-1.85-.92-1.85-2.27s1.14-2.25,2.66-2.25c1.1,0,1.99.5,2.55,1.09l-.37.42c-.54-.57-1.26-.94-2.18-.94-1.21,0-2.02.65-2.02,1.63,0,1.07.91,1.47,1.58,1.76l1.38.62c1.02.46,1.92,1.02,1.92,2.42s-1.15,2.46-2.92,2.46c-1.34,0-2.37-.57-3.09-1.38Z"/>
      <path class="st0" d="M282.1,54.5h.64v9.14h-.64v-9.14Z"/>
      <path class="st0" d="M287.41,54.5h.64l3.22,9.14h-.68l-1.83-5.38c-.37-1.08-.69-2.04-1.02-3.16h-.06c-.32,1.11-.64,2.07-1.01,3.16l-1.85,5.38h-.64l3.22-9.14ZM285.66,59.97h4.1v.53h-4.1v-.53Z"/>
    </g>
    <g>
      <path class="st0" d="M266.88,140.91l.41-.44c.66.75,1.62,1.24,2.68,1.24,1.39,0,2.27-.75,2.27-1.84s-.75-1.5-1.65-1.91l-1.38-.62c-.8-.35-1.85-.92-1.85-2.27s1.14-2.25,2.66-2.25c1.1,0,1.99.5,2.55,1.09l-.37.42c-.54-.57-1.26-.94-2.18-.94-1.21,0-2.02.65-2.02,1.63,0,1.07.91,1.47,1.58,1.76l1.38.62c1.02.46,1.92,1.02,1.92,2.42s-1.15,2.46-2.92,2.46c-1.34,0-2.37-.57-3.09-1.38Z"/>
      <path class="st0" d="M274.78,138.62v-5.63h.64v5.56c0,2.43,1.14,3.17,2.43,3.17s2.49-.73,2.49-3.17v-5.56h.61v5.63c0,2.85-1.51,3.67-3.09,3.67s-3.07-.82-3.07-3.67Z"/>
      <path class="st0" d="M283.6,132.98h2.11c2.82,0,4.16,1.78,4.16,4.54s-1.34,4.6-4.14,4.6h-2.13v-9.14ZM285.65,141.58c2.48,0,3.55-1.68,3.55-4.06s-1.08-4-3.55-4h-1.41v8.06h1.41Z"/>
      <path class="st0" d="M293.82,132.98h.64l3.22,9.14h-.68l-1.83-5.38c-.37-1.08-.69-2.04-1.01-3.16h-.06c-.32,1.11-.64,2.07-1.01,3.16l-1.85,5.38h-.64l3.22-9.14ZM292.07,138.45h4.1v.53h-4.1v-.53Z"/>
      <path class="st0" d="M299.12,132.98h.9l1.91,5.36c.24.67.48,1.35.72,2.03h.06c.24-.68.45-1.36.7-2.03l1.9-5.36h.9v9.14h-.62v-6.01c0-.74.04-1.7.08-2.47h-.06l-.71,2.04-1.97,5.44h-.55l-1.98-5.44-.72-2.04h-.05c.04.76.08,1.73.08,2.47v6.01h-.59v-9.14Z"/>
      <path class="st0" d="M308.9,132.98h5v.55h-4.36v3.46h3.66v.55h-3.66v4.03h4.5v.55h-5.14v-9.14Z"/>
      <path class="st0" d="M316.05,132.98h2.61c1.82,0,3.01.67,3.01,2.41s-1.19,2.53-3.01,2.53h-1.97v4.2h-.64v-9.14ZM318.49,137.39c1.62,0,2.52-.64,2.52-1.99s-.9-1.88-2.52-1.88h-1.81v3.87h1.81ZM318.52,137.74l.61-.18,2.71,4.57h-.74l-2.58-4.38Z"/>
      <path class="st0" d="M323.59,132.98h.64v9.14h-.64v-9.14Z"/>
      <path class="st0" d="M326.33,137.53c0-2.9,1.58-4.72,3.91-4.72,1.07,0,1.89.53,2.38,1.09l-.37.43c-.49-.56-1.16-.94-2-.94-2,0-3.24,1.6-3.24,4.13s1.23,4.18,3.19,4.18c.94,0,1.65-.39,2.31-1.13l.37.4c-.7.81-1.53,1.31-2.72,1.31-2.25,0-3.83-1.85-3.83-4.75Z"/>
      <path class="st0" d="M336.72,132.98h.64l3.22,9.14h-.68l-1.83-5.38c-.37-1.08-.69-2.04-1.02-3.16h-.06c-.32,1.11-.64,2.07-1.01,3.16l-1.85,5.38h-.64l3.22-9.14ZM334.97,138.45h4.1v.53h-4.1v-.53Z"/>
    </g>
    <g>
      <path class="st0" d="M267.58,106.91h.67l3.85,6.44,1.03,1.83h.06c-.04-.9-.08-1.78-.08-2.67v-5.6h.6v9.14h-.67l-3.84-6.45-1.03-1.82h-.06c.04.88.08,1.71.08,2.59v5.68h-.6v-9.14Z"/>
      <path class="st0" d="M275.81,111.45c0-2.89,1.57-4.71,3.76-4.71s3.76,1.82,3.76,4.71-1.57,4.77-3.76,4.77-3.76-1.87-3.76-4.77ZM282.67,111.45c0-2.54-1.24-4.13-3.1-4.13s-3.1,1.59-3.1,4.13,1.24,4.19,3.1,4.19,3.1-1.65,3.1-4.19Z"/>
      <path class="st0" d="M285.44,106.91h2.61c1.82,0,3.01.67,3.01,2.41s-1.19,2.53-3.01,2.53h-1.97v4.2h-.64v-9.14ZM287.89,111.32c1.62,0,2.52-.64,2.52-1.99s-.9-1.88-2.52-1.88h-1.81v3.87h1.81ZM287.91,111.67l.61-.18,2.71,4.57h-.74l-2.58-4.38Z"/>
      <path class="st0" d="M294.8,107.46h-2.91v-.55h6.46v.55h-2.91v8.59h-.64v-8.59Z"/>
      <path class="st0" d="M300.1,106.91h5v.55h-4.36v3.46h3.67v.55h-3.67v4.03h4.5v.55h-5.14v-9.14Z"/>
      <path class="st0" d="M309.22,106.91h.64l3.22,9.14h-.68l-1.83-5.38c-.37-1.08-.69-2.04-1.02-3.16h-.06c-.32,1.11-.64,2.07-1.01,3.16l-1.85,5.38h-.64l3.22-9.14ZM307.47,112.38h4.1v.53h-4.1v-.53Z"/>
      <path class="st0" d="M314.52,106.91h.9l1.91,5.36c.24.67.48,1.35.72,2.03h.06c.24-.68.46-1.36.7-2.03l1.9-5.36h.9v9.14h-.62v-6.01c0-.74.04-1.7.08-2.47h-.06l-.71,2.04-1.97,5.44h-.55l-1.98-5.44-.72-2.04h-.06c.04.76.08,1.73.08,2.47v6.01h-.59v-9.14Z"/>
      <path class="st0" d="M324.31,106.91h5v.55h-4.36v3.46h3.67v.55h-3.67v4.03h4.5v.55h-5.14v-9.14Z"/>
      <path class="st0" d="M331.45,106.91h2.61c1.82,0,3.01.67,3.01,2.41s-1.19,2.53-3.01,2.53h-1.97v4.2h-.64v-9.14ZM333.9,111.32c1.62,0,2.52-.64,2.52-1.99s-.9-1.88-2.52-1.88h-1.81v3.87h1.81ZM333.92,111.67l.61-.18,2.71,4.57h-.74l-2.58-4.38Z"/>
      <path class="st0" d="M339,106.91h.64v9.14h-.64v-9.14Z"/>
      <path class="st0" d="M341.74,111.46c0-2.9,1.58-4.72,3.91-4.72,1.07,0,1.89.53,2.38,1.09l-.38.43c-.49-.56-1.16-.94-2-.94-2,0-3.24,1.6-3.24,4.13s1.23,4.18,3.19,4.18c.94,0,1.65-.39,2.31-1.13l.38.4c-.7.81-1.53,1.31-2.72,1.31-2.25,0-3.83-1.85-3.83-4.75Z"/>
      <path class="st0" d="M352.13,106.91h.64l3.22,9.14h-.68l-1.83-5.38c-.37-1.08-.69-2.04-1.02-3.16h-.06c-.32,1.11-.64,2.07-1.01,3.16l-1.85,5.38h-.64l3.22-9.14ZM350.38,112.38h4.1v.53h-4.1v-.53Z"/>
    </g>
    <g>
      <path class="st0" d="M267.58,80.7h5v.55h-4.36v3.46h3.67v.55h-3.67v4.03h4.5v.55h-5.14v-9.14Z"/>
      <path class="st0" d="M274.69,86.33v-5.63h.64v5.56c0,2.43,1.14,3.17,2.43,3.17s2.49-.73,2.49-3.17v-5.56h.6v5.63c0,2.85-1.51,3.67-3.09,3.67s-3.07-.82-3.07-3.67Z"/>
      <path class="st0" d="M283.52,80.7h2.61c1.82,0,3.01.67,3.01,2.41s-1.19,2.53-3.01,2.53h-1.98v4.2h-.64v-9.14ZM285.96,85.1c1.62,0,2.52-.64,2.52-1.99s-.9-1.88-2.52-1.88h-1.81v3.87h1.81ZM285.99,85.45l.61-.18,2.71,4.57h-.74l-2.58-4.38Z"/>
      <path class="st0" d="M290.47,85.24c0-2.89,1.57-4.71,3.76-4.71s3.76,1.82,3.76,4.71-1.57,4.77-3.76,4.77-3.76-1.87-3.76-4.77ZM297.33,85.24c0-2.54-1.24-4.13-3.1-4.13s-3.1,1.59-3.1,4.13,1.24,4.19,3.1,4.19,3.1-1.65,3.1-4.19Z"/>
      <path class="st0" d="M300.1,80.7h2.3c2.07,0,3.31.67,3.31,2.55s-1.22,2.66-3.26,2.66h-1.72v3.93h-.64v-9.14ZM302.3,85.37c1.87,0,2.76-.62,2.76-2.12s-.93-2.01-2.82-2.01h-1.5v4.13h1.56Z"/>
      <path class="st0" d="M309,80.7h.64l3.22,9.14h-.68l-1.83-5.38c-.37-1.08-.69-2.04-1.01-3.16h-.06c-.32,1.11-.64,2.07-1.01,3.16l-1.85,5.38h-.64l3.22-9.14ZM307.25,86.17h4.1v.53h-4.1v-.53Z"/>
    </g>
    <g>
      <path class="st0" d="M235.31,9.85c0-2.93,1.71-4.72,4.08-4.72,1.1,0,1.96.53,2.5,1.11l-.67.73c-.47-.5-1.07-.82-1.83-.82-1.73,0-2.87,1.4-2.87,3.66s1.14,3.72,2.87,3.72c.83,0,1.47-.36,2.04-1l.67.71c-.71.83-1.61,1.32-2.82,1.32-2.25,0-3.97-1.75-3.97-4.72Z"/>
      <path class="st0" d="M243.4,9.81c0-2.94,1.44-4.67,3.5-4.67s3.5,1.73,3.5,4.67-1.44,4.76-3.5,4.76-3.5-1.78-3.5-4.76ZM249.18,9.81c0-2.29-.92-3.65-2.29-3.65s-2.29,1.36-2.29,3.65.92,3.73,2.29,3.73,2.29-1.4,2.29-3.73Z"/>
      <path class="st0" d="M252.19,5.3h1.28l2.91,5.71.87,1.89h.03c-.04-.9-.15-1.93-.15-2.88v-4.72h1.11v9.1h-1.28l-2.91-5.71-.87-1.89h-.03c.04.93.15,1.9.15,2.84v4.76h-1.11V5.3Z"/>
      <path class="st0" d="M262.95,6.29h-3.01v-.98h7.19v.98h-3.01v8.11h-1.17V6.29Z"/>
      <path class="st0" d="M269.01,13.42h2.26v-7.13h-2.26v-.98h5.69v.98h-2.26v7.13h2.26v.98h-5.69v-.98Z"/>
      <path class="st0" d="M277.15,5.3h1.28l2.91,5.71.87,1.89h.03c-.04-.9-.15-1.93-.15-2.88v-4.72h1.11v9.1h-1.28l-2.91-5.71-.87-1.89h-.03c.04.93.15,1.9.15,2.84v4.76h-1.11V5.3Z"/>
      <path class="st0" d="M285.91,5.3h5.63v.98h-4.47v2.84h3.77v.98h-3.77v3.3h4.61v.98h-5.77V5.3Z"/>
      <path class="st0" d="M293.79,5.3h1.28l2.91,5.71.87,1.89h.03c-.04-.9-.15-1.93-.15-2.88v-4.72h1.11v9.1h-1.28l-2.91-5.71-.87-1.89h-.03c.04.93.15,1.9.15,2.84v4.76h-1.11V5.3Z"/>
      <path class="st0" d="M304.55,6.29h-3.01v-.98h7.19v.98h-3.01v8.11h-1.17V6.29Z"/>
      <path class="st0" d="M310.87,5.3h5.63v.98h-4.47v2.84h3.77v.98h-3.77v3.3h4.61v.98h-5.77V5.3Z"/>
    </g>
    <rect class="st2" x="234.41" y="21.81" width="22.86" height="22.25"/>
    <rect class="st3" x="234.41" y="48" width="22.86" height="22.25"/>
    <rect class="st6" x="234.41" y="74.19" width="22.86" height="22.25"/>
    <rect class="st4" x="234.41" y="100.39" width="22.86" height="22.25"/>
    <rect class="st5" x="234.41" y="126.58" width="22.86" height="22.25"/>
  </g>
  <g>
    <g>
      <path class="st0" d="M381.01,5.3h1.33l3.07,9.1h-1.25l-1.57-5.08c-.32-1.01-.62-2.01-.9-3.07h-.05c-.29,1.05-.58,2.05-.9,3.07l-1.59,5.08h-1.19l3.06-9.1ZM379.57,10.7h4.17v.94h-4.17v-.94Z"/>
      <path class="st0" d="M386.49,5.3h1.28l2.91,5.71.87,1.89h.03c-.04-.9-.15-1.93-.15-2.88v-4.72h1.11v9.1h-1.28l-2.91-5.71-.87-1.89h-.03c.04.93.15,1.9.15,2.84v4.76h-1.11V5.3ZM388.64,3.6c-.35,0-.61.32-.67.9l-.78-.06c.04-1.07.58-1.71,1.41-1.71,1.04,0,1.4.99,2.05.99.35,0,.6-.32.67-.92l.78.06c-.04,1.07-.58,1.71-1.42,1.71-1.04,0-1.4-.97-2.05-.97Z"/>
      <path class="st0" d="M393.85,9.81c0-2.94,1.44-4.67,3.5-4.67s3.5,1.73,3.5,4.67-1.44,4.76-3.5,4.76-3.5-1.78-3.5-4.76ZM399.64,9.81c0-2.29-.92-3.65-2.29-3.65s-2.29,1.36-2.29,3.65.92,3.73,2.29,3.73,2.29-1.4,2.29-3.73Z"/>
      <path class="st0" d="M401.95,13.22l.69-.8c.69.68,1.64,1.12,2.66,1.12,1.25,0,1.97-.6,1.97-1.43,0-.97-.71-1.25-1.62-1.64l-1.32-.58c-.9-.36-1.96-1-1.96-2.34s1.25-2.41,2.98-2.41c1.14,0,2.14.46,2.8,1.12l-.61.75c-.6-.53-1.29-.85-2.23-.85-1.05,0-1.76.5-1.76,1.32,0,.87.85,1.19,1.62,1.5l1.28.57c1.12.44,2.01,1.08,2.01,2.43,0,1.44-1.22,2.59-3.22,2.59-1.33,0-2.48-.53-3.3-1.34Z"/>
      <path class="st0" d="M420.19,5.3h1.33l3.07,9.1h-1.25l-1.57-5.08c-.32-1.01-.62-2.01-.9-3.07h-.06c-.29,1.05-.58,2.05-.9,3.07l-1.59,5.08h-1.19l3.07-9.1ZM418.74,10.7h4.17v.94h-4.17v-.94Z"/>
      <path class="st0" d="M425.43,9.85c0-2.93,1.71-4.72,4.08-4.72,1.1,0,1.96.53,2.5,1.11l-.67.73c-.47-.5-1.07-.82-1.83-.82-1.73,0-2.87,1.4-2.87,3.66s1.14,3.72,2.87,3.72c.83,0,1.47-.36,2.04-1l.67.71c-.71.83-1.61,1.32-2.82,1.32-2.25,0-3.97-1.75-3.97-4.72Z"/>
      <path class="st0" d="M435.94,6.29h-3.01v-.98h7.19v.98h-3.01v8.11h-1.17V6.29Z"/>
      <path class="st0" d="M441.51,13.42h2.26v-7.13h-2.26v-.98h5.69v.98h-2.26v7.13h2.26v.98h-5.69v-.98Z"/>
      <path class="st0" d="M448.61,5.3h1.25l1.46,4.91c.32,1.07.54,1.94.87,3h.06c.33-1.05.57-1.93.87-3l1.46-4.91h1.19l-2.88,9.1h-1.36l-2.91-9.1Z"/>
      <path class="st0" d="M456.53,9.81c0-2.94,1.44-4.67,3.5-4.67s3.5,1.73,3.5,4.67-1.44,4.76-3.5,4.76-3.5-1.78-3.5-4.76ZM462.31,9.81c0-2.29-.92-3.65-2.29-3.65s-2.29,1.36-2.29,3.65.92,3.73,2.29,3.73,2.29-1.4,2.29-3.73Z"/>
    </g>
    <rect class="st1" x="377.52" y="21.89" width="22.79" height="22.25"/>
    <rect class="st1" x="377.52" y="48.08" width="45.58" height="22.25"/>
    <rect class="st1" x="377.52" y="74.27" width="68.36" height="22.25"/>
    <rect class="st1" x="377.52" y="100.46" width="91.15" height="22.25"/>
    <rect class="st1" x="377.52" y="126.66" width="113.94" height="22.25"/>
  </g>
  <g>
    <g>
      <path class="st0" d="M4.03,9.85c0-2.94,1.68-4.72,4.04-4.72,1.21,0,2,.57,2.51,1.11l-.67.73c-.43-.46-.97-.82-1.84-.82-1.71,0-2.82,1.4-2.82,3.66s1.01,3.72,2.79,3.72c.64,0,1.23-.19,1.57-.53v-2.37h-1.8v-.96h2.89v3.83c-.57.58-1.54,1.05-2.72,1.05-2.29,0-3.94-1.75-3.94-4.72Z"/>
      <path class="st0" d="M13.2,5.3h5.63v.98h-4.47v2.84h3.77v.98h-3.77v3.3h4.6v.98h-5.77V5.3Z"/>
      <path class="st0" d="M21.07,5.3h1.28l2.91,5.71.87,1.89h.03c-.04-.9-.15-1.93-.15-2.88v-4.72h1.11v9.1h-1.28l-2.91-5.71-.87-1.89h-.03c.04.93.15,1.9.15,2.84v4.76h-1.11V5.3Z"/>
      <path class="st0" d="M29.84,5.3h5.63v.98h-4.47v2.84h3.77v.98h-3.77v3.3h4.6v.98h-5.77V5.3Z"/>
      <path class="st0" d="M37.95,5.3h2.84c1.84,0,3.19.67,3.19,2.57s-1.35,2.69-3.19,2.69h-1.66v3.84h-1.18V5.3ZM40.62,9.62c1.41,0,2.19-.58,2.19-1.75s-.78-1.62-2.19-1.62h-1.5v3.37h1.5ZM41.47,9.63l2.77,4.77h-1.32l-2.37-4.16.92-.61Z"/>
      <path class="st0" d="M45.56,9.81c0-2.94,1.44-4.67,3.5-4.67s3.5,1.73,3.5,4.67-1.44,4.76-3.5,4.76-3.5-1.78-3.5-4.76ZM51.34,9.81c0-2.29-.92-3.65-2.29-3.65s-2.29,1.36-2.29,3.65.92,3.73,2.29,3.73,2.29-1.4,2.29-3.73Z"/>
    </g>
    <g>
      <path class="st0" d="M36.42,28.98h-2.91v-.55h6.46v.55h-2.91v8.59h-.64v-8.59Z"/>
      <path class="st0" d="M43,33.86l-2.74-5.43h.68l1.39,2.86c.32.67.62,1.3.97,1.97h.06c.35-.67.7-1.31.99-1.97l1.39-2.86h.65l-2.74,5.43v3.71h-.64v-3.71Z"/>
      <path class="st0" d="M47.02,32.98c0-2.9,1.58-4.72,3.91-4.72,1.07,0,1.89.53,2.38,1.09l-.38.43c-.49-.56-1.16-.94-2-.94-2,0-3.24,1.6-3.24,4.13s1.23,4.18,3.19,4.18c.94,0,1.65-.39,2.31-1.13l.38.4c-.7.81-1.53,1.31-2.72,1.31-2.25,0-3.83-1.85-3.83-4.75Z"/>
      <path class="st0" d="M54.51,32.97c0-2.89,1.57-4.71,3.76-4.71s3.76,1.82,3.76,4.71-1.57,4.77-3.76,4.77-3.76-1.87-3.76-4.77ZM61.37,32.97c0-2.54-1.24-4.13-3.1-4.13s-3.1,1.59-3.1,4.13,1.24,4.19,3.1,4.19,3.1-1.65,3.1-4.19Z"/>
      <path class="st0" d="M63.55,32.97c0-2.89,1.57-4.71,3.76-4.71s3.76,1.82,3.76,4.71-1.57,4.77-3.76,4.77-3.76-1.87-3.76-4.77ZM70.41,32.97c0-2.54-1.24-4.13-3.1-4.13s-3.1,1.59-3.1,4.13,1.24,4.19,3.1,4.19,3.1-1.65,3.1-4.19Z"/>
      <path class="st0" d="M73.18,28.43h.67l3.84,6.44,1.04,1.83h.05c-.04-.9-.08-1.78-.08-2.67v-5.6h.6v9.14h-.67l-3.84-6.45-1.04-1.82h-.06c.04.88.08,1.71.08,2.59v5.68h-.6v-9.14Z"/>
    </g>
    <g>
      <path class="st0" d="M34.45,53.45h5v.55h-4.36v3.46h3.66v.55h-3.66v4.03h4.5v.55h-5.14v-9.14Z"/>
      <path class="st0" d="M40.89,61.38l.41-.44c.66.75,1.62,1.24,2.68,1.24,1.39,0,2.27-.75,2.27-1.84s-.75-1.5-1.65-1.91l-1.38-.62c-.8-.35-1.85-.92-1.85-2.27s1.14-2.25,2.66-2.25c1.1,0,1.99.5,2.55,1.09l-.37.42c-.54-.57-1.26-.94-2.18-.94-1.21,0-2.02.65-2.02,1.63,0,1.07.91,1.47,1.58,1.76l1.38.62c1.02.46,1.92,1.02,1.92,2.42s-1.15,2.46-2.92,2.46c-1.34,0-2.37-.57-3.09-1.38Z"/>
      <path class="st0" d="M50.51,54h-2.91v-.55h6.46v.55h-2.91v8.59h-.64v-8.59Z"/>
      <path class="st0" d="M55.81,53.45h2.61c1.82,0,3.01.67,3.01,2.41s-1.19,2.53-3.01,2.53h-1.97v4.2h-.64v-9.14ZM58.25,57.85c1.62,0,2.52-.64,2.52-1.99s-.9-1.88-2.52-1.88h-1.81v3.87h1.81ZM58.28,58.2l.61-.18,2.71,4.57h-.74l-2.58-4.38Z"/>
      <path class="st0" d="M65.32,53.45h.64l3.22,9.14h-.68l-1.83-5.38c-.37-1.08-.69-2.04-1.01-3.16h-.06c-.32,1.11-.64,2.07-1.01,3.16l-1.85,5.38h-.64l3.22-9.14ZM63.57,58.92h4.1v.53h-4.1v-.53Z"/>
      <path class="st0" d="M71.99,54h-2.91v-.55h6.46v.55h-2.91v8.59h-.64v-8.59Z"/>
      <path class="st0" d="M77.29,53.45h5v.55h-4.36v3.46h3.67v.55h-3.67v4.03h4.5v.55h-5.14v-9.14Z"/>
      <path class="st0" d="M83.84,58c0-2.9,1.63-4.72,4.04-4.72,1.23,0,2,.58,2.49,1.09l-.38.43c-.47-.51-1.11-.94-2.11-.94-2.09,0-3.38,1.6-3.38,4.13s1.22,4.18,3.31,4.18c.82,0,1.6-.26,2.04-.69v-2.85h-2.18v-.54h2.79v3.63c-.56.61-1.5,1.03-2.7,1.03-2.35,0-3.93-1.85-3.93-4.75Z"/>
      <path class="st0" d="M92.82,53.45h.64v9.14h-.64v-9.14Z"/>
      <path class="st0" d="M98.13,53.45h.64l3.22,9.14h-.68l-1.83-5.38c-.37-1.08-.69-2.04-1.02-3.16h-.06c-.32,1.11-.64,2.07-1.01,3.16l-1.85,5.38h-.64l3.22-9.14ZM96.38,58.92h4.1v.53h-4.1v-.53Z"/>
    </g>
    <g>
      <path class="st0" d="M33.86,85.77c0-2.9,1.58-4.72,3.91-4.72,1.07,0,1.89.53,2.38,1.09l-.37.43c-.49-.56-1.16-.94-2-.94-2,0-3.24,1.6-3.24,4.13s1.23,4.18,3.19,4.18c.94,0,1.65-.39,2.31-1.13l.37.4c-.7.81-1.53,1.31-2.72,1.31-2.25,0-3.83-1.85-3.83-4.75Z"/>
      <path class="st0" d="M44.26,81.21h.64l3.22,9.14h-.68l-1.83-5.38c-.37-1.08-.69-2.04-1.02-3.16h-.06c-.32,1.11-.64,2.07-1.01,3.16l-1.85,5.38h-.64l3.22-9.14ZM42.51,86.68h4.1v.53h-4.1v-.53Z"/>
      <path class="st0" d="M48.86,89.14l.41-.44c.66.75,1.62,1.24,2.68,1.24,1.4,0,2.27-.75,2.27-1.84s-.74-1.5-1.64-1.91l-1.39-.62c-.8-.35-1.85-.92-1.85-2.27s1.14-2.25,2.66-2.25c1.1,0,1.99.5,2.55,1.09l-.37.42c-.54-.57-1.26-.94-2.18-.94-1.21,0-2.02.65-2.02,1.63,0,1.07.91,1.47,1.58,1.76l1.38.62c1.02.46,1.92,1.02,1.92,2.42s-1.15,2.46-2.92,2.46c-1.34,0-2.37-.57-3.09-1.38Z"/>
      <path class="st0" d="M56.76,86.85v-5.63h.64v5.56c0,2.43,1.14,3.17,2.43,3.17s2.49-.73,2.49-3.17v-5.56h.6v5.63c0,2.85-1.51,3.67-3.09,3.67s-3.07-.82-3.07-3.67Z"/>
      <path class="st0" d="M67.3,81.21h.64l3.22,9.14h-.68l-1.83-5.38c-.37-1.08-.69-2.04-1.02-3.16h-.06c-.32,1.11-.64,2.07-1.01,3.16l-1.85,5.38h-.64l3.22-9.14ZM65.55,86.68h4.1v.53h-4.1v-.53Z"/>
      <path class="st0" d="M72.6,81.21h.64v8.59h4.21v.55h-4.85v-9.14Z"/>
    </g>
    <g>
      <path class="st0" d="M36.43,108.98h.64l3.22,9.14h-.68l-1.83-5.38c-.37-1.08-.69-2.04-1.01-3.16h-.06c-.32,1.11-.64,2.07-1.01,3.16l-1.85,5.38h-.64l3.22-9.14ZM34.68,114.45h4.1v.53h-4.1v-.53Z"/>
      <path class="st0" d="M40.31,108.98h.68l1.69,5.34c.35,1.12.59,1.96.96,3.07h.06c.37-1.11.62-1.95.97-3.07l1.69-5.34h.64l-2.99,9.14h-.69l-3.01-9.14Z"/>
      <path class="st0" d="M48.39,108.98h5v.55h-4.36v3.46h3.67v.55h-3.67v4.03h4.5v.55h-5.14v-9.14Z"/>
      <path class="st0" d="M55.53,108.98h.67l3.84,6.44,1.04,1.83h.05c-.04-.9-.08-1.78-.08-2.67v-5.6h.6v9.14h-.67l-3.84-6.45-1.04-1.82h-.06c.04.88.08,1.71.08,2.59v5.68h-.6v-9.14Z"/>
      <path class="st0" d="M66.32,109.53h-2.91v-.55h6.46v.55h-2.91v8.59h-.64v-8.59Z"/>
      <path class="st0" d="M71.58,114.61v-5.63h.64v5.56c0,2.43,1.14,3.17,2.43,3.17s2.49-.73,2.49-3.17v-5.56h.6v5.63c0,2.85-1.51,3.67-3.09,3.67s-3.07-.82-3.07-3.67Z"/>
      <path class="st0" d="M80.41,108.98h2.61c1.82,0,3.01.67,3.01,2.41s-1.19,2.53-3.01,2.53h-1.98v4.2h-.64v-9.14ZM82.85,113.38c1.62,0,2.52-.64,2.52-1.99s-.9-1.88-2.52-1.88h-1.81v3.87h1.81ZM82.88,113.73l.61-.18,2.71,4.57h-.74l-2.58-4.38Z"/>
      <path class="st0" d="M89.92,108.98h.64l3.22,9.14h-.68l-1.83-5.38c-.37-1.08-.69-2.04-1.02-3.16h-.06c-.32,1.11-.64,2.07-1.01,3.16l-1.85,5.38h-.64l3.22-9.14ZM88.17,114.45h4.1v.53h-4.1v-.53Z"/>
    </g>
    <g>
      <path class="st0" d="M34.45,136.74h.64v9.14h-.64v-9.14Z"/>
      <path class="st0" d="M37.78,136.74h2.11c2.82,0,4.16,1.78,4.16,4.54s-1.34,4.6-4.14,4.6h-2.13v-9.14ZM39.83,145.34c2.48,0,3.55-1.68,3.55-4.06s-1.08-4-3.55-4h-1.41v8.06h1.41Z"/>
      <path class="st0" d="M46.15,136.74h.64v8.59h4.21v.55h-4.85v-9.14Z"/>
      <path class="st0" d="M52.63,136.74h5v.55h-4.36v3.46h3.66v.55h-3.66v4.03h4.5v.55h-5.14v-9.14Z"/>
    </g>
    <g>
      <rect class="st0" x="3.6" y="21.89" width="7.62" height="7.42"/>
      <rect class="st0" x="18.83" y="21.89" width="7.62" height="7.42"/>
      <rect class="st0" x="11.22" y="29.3" width="7.62" height="7.42"/>
      <rect class="st0" x="3.6" y="36.72" width="7.62" height="7.42"/>
      <rect class="st0" x="18.83" y="36.72" width="7.62" height="7.42"/>
    </g>
    <g>
      <rect class="st0" x="3.6" y="48.08" width="7.62" height="7.42"/>
      <rect class="st0" x="3.6" y="55.5" width="7.62" height="7.42"/>
      <rect class="st0" x="18.83" y="48.08" width="7.62" height="7.42"/>
      <rect class="st0" x="18.83" y="55.5" width="7.62" height="7.42"/>
      <rect class="st0" x="11.22" y="62.91" width="7.62" height="7.42"/>
      <rect class="st0" x="18.83" y="62.91" width="7.62" height="7.42"/>
    </g>
    <g>
      <rect class="st0" x="3.6" y="74.27" width="7.62" height="7.42"/>
      <rect class="st0" x="3.6" y="81.69" width="7.62" height="7.42"/>
      <rect class="st0" x="18.83" y="74.27" width="7.62" height="7.42"/>
      <rect class="st0" x="18.83" y="81.69" width="7.62" height="7.42"/>
      <rect class="st0" x="11.22" y="89.11" width="7.62" height="7.42"/>
      <rect class="st0" x="11.22" y="74.27" width="7.62" height="7.42"/>
      <rect class="st0" x="3.6" y="89.11" width="7.62" height="7.42"/>
      <rect class="st0" x="18.83" y="89.11" width="7.62" height="7.42"/>
    </g>
    <g>
      <rect class="st0" x="3.6" y="100.46" width="7.62" height="7.42"/>
      <rect class="st0" x="3.6" y="107.88" width="7.62" height="7.42"/>
      <rect class="st0" x="18.83" y="107.88" width="7.62" height="7.42"/>
      <rect class="st0" x="11.22" y="115.3" width="7.62" height="7.42"/>
      <rect class="st0" x="11.22" y="100.46" width="7.62" height="7.42"/>
      <rect class="st0" x="18.83" y="115.3" width="7.62" height="7.42"/>
    </g>
    <g>
      <rect class="st0" x="11.22" y="134.07" width="7.62" height="7.42"/>
      <rect class="st0" x="3.6" y="134.07" width="7.62" height="7.42"/>
      <rect class="st0" x="18.83" y="134.07" width="7.62" height="7.42"/>
      <rect class="st0" x="11.22" y="141.49" width="7.62" height="7.42"/>
      <rect class="st0" x="11.22" y="126.66" width="7.62" height="7.42"/>
      <rect class="st0" x="3.6" y="141.49" width="7.62" height="7.42"/>
    </g>
  </g>
</svg>