<?xml version="1.0" encoding="UTF-8"?>
<svg id="Capa_1" xmlns="http://www.w3.org/2000/svg" version="1.1" viewBox="0 0 499.4 352.34">
  <!-- Generator: Adobe Illustrator 29.0.0, SVG Export Plug-In . SVG Version: 2.1.0 Build 186)  -->
  <defs>
    <style>
      .st0 {
        fill: #fff;
      }

      .st1 {
        stroke-width: .22px;
      }

      .st1, .st2, .st3, .st4, .st5, .st6, .st7, .st8 {
        fill: none;
        stroke-miterlimit: 10;
      }

      .st1, .st2, .st8 {
        stroke: #fff;
      }

      .st2 {
        stroke-width: .5px;
      }

      .st9 {
        fill: #9200b8;
      }

      .st10 {
        fill: #ff9a51;
      }

      .st11 {
        fill: #000aff;
      }

      .st12 {
        fill: #e92fed;
      }

      .st3 {
        stroke: #ffe86f;
      }

      .st3, .st4, .st5, .st6, .st7 {
        stroke-width: .75px;
      }

      .st4 {
        stroke: #000aff;
      }

      .st5 {
        stroke: #ff9a51;
      }

      .st13 {
        fill: #ffe86f;
      }

      .st6 {
        stroke: #e92fed;
      }

      .st7 {
        stroke: #9200b8;
      }

      .st8 {
        stroke-width: .25px;
      }
    </style>
  </defs>
  <g>
    <path class="st0" d="M464.21,46.43c0-2.94.92-4.58,2.58-4.58s2.58,1.64,2.58,4.58-.92,4.63-2.58,4.63-2.58-1.69-2.58-4.63ZM468.93,46.43c0-2.75-.83-4.19-2.14-4.19s-2.14,1.44-2.14,4.19.83,4.24,2.14,4.24,2.14-1.5,2.14-4.24Z"/>
    <path class="st0" d="M470.62,47.23h3v.42h-3v-.42Z"/>
    <path class="st0" d="M478.47,44.29c0-.39.03-1.08.06-1.47h-.06c-.22.36-.47.67-.72,1.05l-2.8,3.91h5.3v.39h-5.88v-.22l4.24-5.94h.28v8.88h-.42v-6.6Z"/>
  </g>
  <g>
    <path class="st0" d="M463.88,76.42l.28-.3c.53.55,1.22,1.11,2.5,1.11s2.3-1.03,2.3-2.52-.89-2.41-2.27-2.41c-.69,0-1.17.25-1.69.61l-.36-.22.33-4.11h3.97v.39h-3.58l-.3,3.41c.47-.29.97-.5,1.66-.5,1.5,0,2.69.86,2.69,2.8s-1.39,2.94-2.77,2.94-2.19-.64-2.75-1.19Z"/>
    <path class="st0" d="M470.62,73.78h3v.42h-3v-.42Z"/>
    <path class="st0" d="M474.69,75.17c0-1.22.97-2.11,1.8-2.55v-.05c-.64-.42-1.28-1.08-1.28-2.03,0-1.25,1-2.14,2.25-2.14,1.5,0,2.36,1,2.36,2.3,0,1-.78,1.89-1.28,2.3v.06c.75.47,1.55,1.05,1.55,2.25,0,1.28-1.05,2.3-2.63,2.3s-2.77-1.05-2.77-2.44ZM479.66,75.31c0-1.44-1.42-1.94-2.83-2.5-.97.55-1.69,1.33-1.69,2.36,0,1.14.97,2.05,2.33,2.05s2.19-.86,2.19-1.91ZM479.38,70.71c0-1.03-.69-1.91-1.91-1.91-1.05,0-1.8.75-1.8,1.75,0,1.33,1.28,1.86,2.47,2.33.8-.64,1.25-1.36,1.25-2.16Z"/>
  </g>
  <g>
    <path class="st0" d="M457.78,103.01l.28-.3c.4.5.94.75,1.53.75,1.47,0,2.75-1.19,2.75-4.66,0-2.16-.72-3.77-2.41-3.77-1.08,0-1.89,1.05-1.89,2.36s.58,2.36,2.02,2.36c.67,0,1.55-.42,2.33-1.5v.56c-.64.8-1.47,1.33-2.36,1.33-1.55,0-2.44-.97-2.44-2.75,0-1.58,1.08-2.75,2.36-2.75,1.78,0,2.83,1.53,2.83,4.16,0,3.77-1.53,5.05-3.22,5.05-.78,0-1.35-.33-1.78-.83Z"/>
    <path class="st0" d="M464.07,100.02h3v.42h-3v-.42Z"/>
    <path class="st0" d="M468.79,103.29h2.11v-7.66h-1.58v-.3c.69-.11,1.25-.31,1.64-.53h.36v8.49h1.97v.39h-4.49v-.39Z"/>
    <path class="st0" d="M475.33,103.29h2.11v-7.66h-1.58v-.3c.69-.11,1.25-.31,1.64-.53h.36v8.49h1.97v.39h-4.49v-.39Z"/>
  </g>
  <g>
    <path class="st0" d="M451.62,128.73h2.11v-7.66h-1.58v-.3c.69-.11,1.25-.31,1.64-.53h.36v8.49h1.97v.39h-4.49v-.39Z"/>
    <path class="st0" d="M457.56,128.84c3-3.08,4.44-4.74,4.44-6.33,0-1.14-.61-2.05-2.02-2.05-.83,0-1.58.5-2.14,1.19l-.31-.28c.64-.72,1.42-1.3,2.47-1.3,1.55,0,2.44.97,2.44,2.44,0,1.8-1.64,3.51-4.24,6.27.5-.03,1-.06,1.5-.06h3.19v.39h-5.33v-.28Z"/>
    <path class="st0" d="M464.07,125.46h3v.42h-3v-.42Z"/>
    <path class="st0" d="M468.79,128.73h2.11v-7.66h-1.58v-.3c.69-.11,1.25-.31,1.64-.53h.36v8.49h1.97v.39h-4.49v-.39Z"/>
    <path class="st0" d="M474.5,128.09l.28-.3c.53.55,1.22,1.11,2.5,1.11s2.3-1.03,2.3-2.52-.89-2.41-2.27-2.41c-.69,0-1.17.25-1.69.61l-.36-.22.33-4.11h3.97v.39h-3.58l-.3,3.41c.47-.29.97-.5,1.66-.5,1.5,0,2.69.86,2.69,2.8s-1.39,2.94-2.77,2.94-2.19-.64-2.75-1.19Z"/>
  </g>
  <g>
    <path class="st0" d="M451.62,155.87h2.11v-7.66h-1.58v-.3c.69-.11,1.25-.31,1.64-.53h.36v8.49h1.97v.39h-4.49v-.39Z"/>
    <path class="st0" d="M457.72,152.26c0-3.77,1.53-5.05,3.22-5.05.78,0,1.33.33,1.78.83l-.28.3c-.4-.5-.94-.75-1.53-.75-1.47,0-2.75,1.19-2.75,4.66,0,2.16.72,3.77,2.41,3.77,1.08,0,1.89-1.05,1.89-2.36s-.58-2.36-2.03-2.36c-.67,0-1.55.42-2.33,1.5v-.56c.64-.8,1.47-1.33,2.36-1.33,1.55,0,2.44.97,2.44,2.75,0,1.58-1.08,2.75-2.36,2.75-1.78,0-2.83-1.53-2.83-4.16Z"/>
    <path class="st0" d="M464.07,152.59h3v.42h-3v-.42Z"/>
    <path class="st0" d="M468.79,155.87h2.11v-7.66h-1.58v-.3c.69-.11,1.25-.31,1.64-.53h.36v8.49h1.97v.39h-4.49v-.39Z"/>
    <path class="st0" d="M474.69,153.98c0-1.22.97-2.11,1.8-2.55v-.05c-.64-.42-1.28-1.08-1.28-2.03,0-1.25,1-2.14,2.25-2.14,1.5,0,2.36,1,2.36,2.3,0,1-.78,1.89-1.28,2.3v.06c.75.47,1.55,1.05,1.55,2.25,0,1.28-1.05,2.3-2.64,2.3s-2.77-1.05-2.77-2.44ZM479.66,154.12c0-1.44-1.42-1.94-2.83-2.5-.97.55-1.69,1.33-1.69,2.36,0,1.14.97,2.05,2.33,2.05s2.19-.86,2.19-1.91ZM479.38,149.51c0-1.03-.69-1.91-1.91-1.91-1.05,0-1.8.75-1.8,1.75,0,1.33,1.28,1.86,2.47,2.33.8-.64,1.25-1.36,1.25-2.16Z"/>
  </g>
  <g>
    <path class="st0" d="M13.04,23.18c0-2.94,1.68-4.72,4.04-4.72,1.21,0,2,.57,2.51,1.11l-.67.73c-.43-.46-.97-.82-1.84-.82-1.71,0-2.82,1.4-2.82,3.66s1.01,3.72,2.79,3.72c.64,0,1.23-.19,1.57-.53v-2.37h-1.8v-.96h2.88v3.83c-.57.58-1.54,1.05-2.72,1.05-2.29,0-3.94-1.75-3.94-4.72Z"/>
    <path class="st0" d="M22.21,18.63h5.63v.98h-4.47v2.84h3.77v.98h-3.77v3.3h4.6v.98h-5.77v-9.1Z"/>
    <path class="st0" d="M30.08,18.63h1.28l2.91,5.71.88,1.89h.03c-.04-.9-.15-1.93-.15-2.88v-4.72h1.11v9.1h-1.28l-2.91-5.71-.87-1.89h-.03c.04.93.15,1.9.15,2.84v4.76h-1.11v-9.1Z"/>
    <path class="st0" d="M38.85,18.63h5.63v.98h-4.47v2.84h3.77v.98h-3.77v3.3h4.61v.98h-5.77v-9.1Z"/>
    <path class="st0" d="M46.96,18.63h2.84c1.84,0,3.19.67,3.19,2.57s-1.35,2.69-3.19,2.69h-1.66v3.84h-1.18v-9.1ZM49.64,22.94c1.42,0,2.19-.58,2.19-1.75s-.78-1.62-2.19-1.62h-1.5v3.37h1.5ZM50.48,22.96l2.77,4.77h-1.32l-2.37-4.16.92-.61Z"/>
    <path class="st0" d="M54.57,23.14c0-2.94,1.44-4.67,3.5-4.67s3.5,1.73,3.5,4.67-1.44,4.76-3.5,4.76-3.5-1.78-3.5-4.76ZM60.36,23.14c0-2.29-.92-3.65-2.29-3.65s-2.29,1.36-2.29,3.65.92,3.73,2.29,3.73,2.29-1.4,2.29-3.73Z"/>
  </g>
  <g>
    <path class="st0" d="M47.36,42.13h-2.97v-.39h6.38v.39h-2.97v8.77h-.44v-8.77Z"/>
    <path class="st0" d="M53.85,47.12l-2.75-5.38h.47l1.47,2.97c.33.67.64,1.3,1,1.97h.06c.36-.67.72-1.3,1.03-1.97l1.47-2.97h.44l-2.75,5.38v3.77h-.44v-3.77Z"/>
    <path class="st0" d="M57.74,46.29c0-2.89,1.53-4.72,3.86-4.72,1.05,0,1.86.53,2.33,1.08l-.28.31c-.5-.58-1.19-.97-2.05-.97-2.11,0-3.38,1.66-3.38,4.3s1.28,4.35,3.33,4.35c.97,0,1.69-.39,2.39-1.17l.28.28c-.69.8-1.5,1.3-2.69,1.3-2.25,0-3.77-1.89-3.77-4.77Z"/>
    <path class="st0" d="M65.22,46.29c0-2.89,1.55-4.72,3.72-4.72s3.72,1.83,3.72,4.72-1.55,4.77-3.72,4.77-3.72-1.89-3.72-4.77ZM72.19,46.29c0-2.64-1.3-4.3-3.25-4.3s-3.25,1.66-3.25,4.3,1.3,4.35,3.25,4.35,3.25-1.72,3.25-4.35Z"/>
    <path class="st0" d="M74.21,46.29c0-2.89,1.55-4.72,3.72-4.72s3.72,1.83,3.72,4.72-1.55,4.77-3.72,4.77-3.72-1.89-3.72-4.77ZM81.17,46.29c0-2.64-1.3-4.3-3.25-4.3s-3.25,1.66-3.25,4.3,1.3,4.35,3.25,4.35,3.25-1.72,3.25-4.35Z"/>
    <path class="st0" d="M83.8,41.74h.47l4.05,6.71,1.05,1.8h.06c-.03-.89-.06-1.72-.06-2.58v-5.94h.42v9.15h-.47l-4.05-6.71-1.05-1.8h-.05c.03.86.05,1.64.05,2.5v6.02h-.42v-9.15Z"/>
  </g>
  <g>
    <path class="st0" d="M45.37,66.76h4.91v.39h-4.47v3.69h3.75v.39h-3.75v4.3h4.61v.39h-5.05v-9.15Z"/>
    <path class="st0" d="M51.72,74.69l.3-.3c.67.78,1.64,1.28,2.75,1.28,1.47,0,2.41-.8,2.41-1.97s-.78-1.61-1.69-2.02l-1.41-.64c-.78-.35-1.86-.89-1.86-2.25s1.11-2.19,2.58-2.19c1.11,0,1.97.51,2.5,1.08l-.28.31c-.53-.58-1.28-.97-2.22-.97-1.28,0-2.14.69-2.14,1.75,0,1.14.96,1.57,1.61,1.86l1.42.64c1.01.46,1.94,1,1.94,2.41s-1.14,2.41-2.86,2.41c-1.36,0-2.36-.58-3.05-1.39Z"/>
    <path class="st0" d="M61.31,67.15h-2.97v-.39h6.38v.39h-2.97v8.77h-.44v-8.77Z"/>
    <path class="st0" d="M66.53,66.76h2.52c1.8,0,2.94.67,2.94,2.36s-1.14,2.47-2.94,2.47h-2.08v4.33h-.44v-9.15ZM68.88,71.2c1.69,0,2.64-.67,2.64-2.08s-.94-1.97-2.64-1.97h-1.91v4.05h1.91ZM68.94,71.45l.5-.03,2.69,4.49h-.53l-2.66-4.47Z"/>
    <path class="st0" d="M75.96,66.76h.39l3.27,9.15h-.47l-1.91-5.49c-.39-1.11-.72-2.05-1.05-3.19h-.06c-.33,1.14-.67,2.08-1.05,3.19l-1.94,5.49h-.44l3.27-9.15ZM74.1,72.25h4.06v.39h-4.06v-.39Z"/>
    <path class="st0" d="M82.58,67.15h-2.97v-.39h6.38v.39h-2.97v8.77h-.44v-8.77Z"/>
    <path class="st0" d="M87.8,66.76h4.91v.39h-4.47v3.69h3.74v.39h-3.74v4.3h4.6v.39h-5.05v-9.15Z"/>
    <path class="st0" d="M94.26,71.31c0-2.89,1.58-4.72,3.99-4.72,1.22,0,1.97.58,2.44,1.08l-.28.31c-.47-.53-1.14-.97-2.16-.97-2.19,0-3.52,1.66-3.52,4.3s1.28,4.35,3.41,4.35c.89,0,1.72-.28,2.19-.75v-3.02h-2.27v-.39h2.72v3.55c-.56.61-1.47,1.03-2.66,1.03-2.33,0-3.86-1.89-3.86-4.77Z"/>
    <path class="st0" d="M103.19,66.76h.44v9.15h-.44v-9.15Z"/>
    <path class="st0" d="M108.43,66.76h.39l3.27,9.15h-.47l-1.91-5.49c-.39-1.11-.72-2.05-1.05-3.19h-.06c-.33,1.14-.67,2.08-1.05,3.19l-1.94,5.49h-.44l3.27-9.15ZM106.57,72.25h4.06v.39h-4.06v-.39Z"/>
  </g>
  <g>
    <path class="st0" d="M44.76,99.07c0-2.89,1.53-4.72,3.86-4.72,1.05,0,1.86.53,2.33,1.08l-.28.31c-.5-.58-1.19-.97-2.05-.97-2.11,0-3.38,1.66-3.38,4.3s1.28,4.35,3.33,4.35c.97,0,1.69-.39,2.39-1.17l.28.28c-.69.8-1.5,1.3-2.69,1.3-2.25,0-3.77-1.89-3.77-4.77Z"/>
    <path class="st0" d="M55.18,94.52h.39l3.27,9.15h-.47l-1.91-5.49c-.39-1.11-.72-2.05-1.05-3.19h-.05c-.33,1.14-.67,2.08-1.05,3.19l-1.94,5.49h-.44l3.27-9.15ZM53.33,100.02h4.06v.39h-4.06v-.39Z"/>
    <path class="st0" d="M59.65,102.46l.3-.3c.67.78,1.64,1.28,2.75,1.28,1.47,0,2.41-.8,2.41-1.97s-.78-1.61-1.69-2.02l-1.41-.64c-.78-.35-1.86-.89-1.86-2.25s1.11-2.19,2.58-2.19c1.11,0,1.97.51,2.5,1.08l-.28.31c-.53-.58-1.28-.97-2.22-.97-1.28,0-2.14.69-2.14,1.75,0,1.14.96,1.57,1.61,1.86l1.42.64c1.01.46,1.94,1,1.94,2.41s-1.14,2.41-2.86,2.41c-1.36,0-2.36-.58-3.05-1.39Z"/>
    <path class="st0" d="M67.5,100.27v-5.74h.44v5.63c0,2.52,1.22,3.27,2.55,3.27s2.61-.75,2.61-3.27v-5.63h.42v5.74c0,2.83-1.55,3.58-3.02,3.58s-3-.75-3-3.58Z"/>
    <path class="st0" d="M78.01,94.52h.39l3.27,9.15h-.47l-1.91-5.49c-.39-1.11-.72-2.05-1.05-3.19h-.05c-.33,1.14-.67,2.08-1.05,3.19l-1.94,5.49h-.44l3.27-9.15ZM76.15,100.02h4.06v.39h-4.06v-.39Z"/>
    <path class="st0" d="M83.19,94.52h.44v8.77h4.3v.39h-4.74v-9.15Z"/>
  </g>
  <g>
    <path class="st0" d="M47.39,122.29h.39l3.27,9.15h-.47l-1.91-5.49c-.39-1.11-.72-2.05-1.05-3.19h-.05c-.33,1.14-.67,2.08-1.05,3.19l-1.94,5.49h-.44l3.27-9.15ZM45.53,127.78h4.06v.39h-4.06v-.39Z"/>
    <path class="st0" d="M51.13,122.29h.47l1.78,5.49c.36,1.14.61,1.97,1,3.09h.05c.39-1.12.64-1.96,1-3.09l1.78-5.49h.44l-3.02,9.15h-.44l-3.05-9.15Z"/>
    <path class="st0" d="M59.12,122.29h4.91v.39h-4.47v3.69h3.74v.39h-3.74v4.3h4.6v.39h-5.05v-9.15Z"/>
    <path class="st0" d="M66.19,122.29h.47l4.05,6.71,1.05,1.8h.06c-.03-.89-.06-1.72-.06-2.58v-5.94h.42v9.15h-.47l-4.05-6.71-1.05-1.8h-.06c.03.86.06,1.64.06,2.5v6.02h-.42v-9.15Z"/>
    <path class="st0" d="M76.95,122.68h-2.97v-.39h6.38v.39h-2.97v8.77h-.44v-8.77Z"/>
    <path class="st0" d="M82.14,128.03v-5.74h.44v5.63c0,2.52,1.22,3.27,2.55,3.27s2.61-.75,2.61-3.27v-5.63h.42v5.74c0,2.83-1.55,3.58-3.02,3.58s-3-.75-3-3.58Z"/>
    <path class="st0" d="M90.9,122.29h2.52c1.8,0,2.94.67,2.94,2.36s-1.14,2.47-2.94,2.47h-2.08v4.33h-.44v-9.15ZM93.26,126.73c1.69,0,2.64-.67,2.64-2.08s-.94-1.97-2.64-1.97h-1.91v4.05h1.91ZM93.32,126.98l.5-.03,2.69,4.49h-.53l-2.66-4.47Z"/>
    <path class="st0" d="M100.33,122.29h.39l3.27,9.15h-.47l-1.91-5.49c-.39-1.11-.72-2.05-1.05-3.19h-.06c-.33,1.14-.67,2.08-1.05,3.19l-1.94,5.49h-.44l3.27-9.15ZM98.47,127.78h4.06v.39h-4.06v-.39Z"/>
  </g>
  <g>
    <path class="st0" d="M45.37,150.05h.44v9.15h-.44v-9.15Z"/>
    <path class="st0" d="M48.58,150.05h2.05c2.83,0,4.11,1.83,4.11,4.55s-1.28,4.6-4.11,4.6h-2.05v-9.15ZM50.58,158.82c2.61,0,3.69-1.8,3.69-4.22s-1.08-4.16-3.69-4.16h-1.55v8.38h1.55Z"/>
    <path class="st0" d="M56.9,150.05h.44v8.77h4.3v.39h-4.74v-9.15Z"/>
    <path class="st0" d="M63.28,150.05h4.91v.39h-4.47v3.69h3.74v.39h-3.74v4.3h4.6v.39h-5.05v-9.15Z"/>
  </g>
  <path class="st0" d="M45.17,225.73h2.11v-7.66h-1.58v-.3c.69-.11,1.25-.31,1.64-.53h.36v8.49h1.97v.39h-4.49v-.39Z"/>
  <g>
    <path class="st0" d="M346,216.96h.39l3.27,9.15h-.47l-1.91-5.49c-.39-1.11-.72-2.05-1.05-3.19h-.06c-.33,1.14-.67,2.08-1.05,3.19l-1.94,5.49h-.44l3.27-9.15ZM344.14,222.45h4.06v.39h-4.06v-.39Z"/>
    <path class="st0" d="M351.19,216.96h4.88v.39h-4.44v3.86h3.75v.39h-3.75v4.52h-.44v-9.15Z"/>
    <path class="st0" d="M357.7,216.96h2.52c1.8,0,2.94.67,2.94,2.36s-1.14,2.47-2.94,2.47h-2.08v4.33h-.44v-9.15ZM360.06,221.4c1.69,0,2.63-.67,2.63-2.08s-.94-1.97-2.63-1.97h-1.91v4.05h1.91ZM360.12,221.65l.5-.03,2.69,4.49h-.53l-2.66-4.47Z"/>
    <path class="st0" d="M365.11,216.96h.44v9.15h-.44v-9.15Z"/>
    <path class="st0" d="M367.71,221.51c0-2.89,1.53-4.72,3.86-4.72,1.05,0,1.86.53,2.33,1.08l-.28.31c-.5-.58-1.19-.97-2.05-.97-2.11,0-3.38,1.66-3.38,4.3s1.28,4.35,3.33,4.35c.97,0,1.69-.39,2.39-1.17l.28.28c-.69.8-1.5,1.3-2.69,1.3-2.25,0-3.77-1.89-3.77-4.77Z"/>
    <path class="st0" d="M378.14,216.96h.39l3.27,9.15h-.47l-1.91-5.49c-.39-1.11-.72-2.05-1.05-3.19h-.05c-.33,1.14-.67,2.08-1.05,3.19l-1.94,5.49h-.44l3.27-9.15ZM376.28,222.45h4.06v.39h-4.06v-.39Z"/>
  </g>
  <g>
    <path class="st0" d="M346,244.09h.39l3.27,9.15h-.47l-1.91-5.49c-.39-1.11-.72-2.05-1.05-3.19h-.06c-.33,1.14-.67,2.08-1.05,3.19l-1.94,5.49h-.44l3.27-9.15ZM344.14,249.58h4.06v.39h-4.06v-.39Z"/>
    <path class="st0" d="M350.46,252.03l.3-.3c.67.78,1.64,1.28,2.75,1.28,1.47,0,2.41-.8,2.41-1.97s-.78-1.61-1.69-2.02l-1.41-.64c-.78-.35-1.86-.89-1.86-2.25s1.11-2.19,2.58-2.19c1.11,0,1.97.51,2.5,1.08l-.28.31c-.53-.58-1.28-.97-2.22-.97-1.28,0-2.14.69-2.14,1.75,0,1.14.96,1.57,1.61,1.86l1.42.64c1.01.46,1.94,1,1.94,2.41s-1.14,2.41-2.86,2.41c-1.36,0-2.36-.58-3.05-1.39Z"/>
    <path class="st0" d="M358.34,244.09h.44v9.15h-.44v-9.15Z"/>
    <path class="st0" d="M363.58,244.09h.39l3.27,9.15h-.47l-1.91-5.49c-.39-1.11-.72-2.05-1.05-3.19h-.05c-.33,1.14-.67,2.08-1.05,3.19l-1.94,5.49h-.44l3.27-9.15ZM361.72,249.58h4.06v.39h-4.06v-.39Z"/>
  </g>
  <g>
    <path class="st0" d="M343.25,330.51l.31-.3c.67.78,1.64,1.28,2.75,1.28,1.47,0,2.41-.8,2.41-1.97s-.78-1.61-1.69-2.02l-1.42-.64c-.78-.35-1.86-.89-1.86-2.25s1.11-2.19,2.58-2.19c1.11,0,1.97.51,2.5,1.08l-.28.31c-.53-.58-1.28-.97-2.22-.97-1.28,0-2.14.69-2.14,1.75,0,1.14.96,1.57,1.61,1.86l1.42.64c1.01.46,1.94,1,1.94,2.41s-1.14,2.41-2.86,2.41c-1.36,0-2.36-.58-3.05-1.39Z"/>
    <path class="st0" d="M351.1,328.32v-5.74h.44v5.63c0,2.52,1.22,3.27,2.55,3.27s2.61-.75,2.61-3.27v-5.63h.42v5.74c0,2.83-1.55,3.58-3.02,3.58s-3-.75-3-3.58Z"/>
    <path class="st0" d="M359.87,322.58h2.05c2.83,0,4.11,1.83,4.11,4.55s-1.28,4.6-4.11,4.6h-2.05v-9.15ZM361.86,331.34c2.61,0,3.69-1.8,3.69-4.22s-1.08-4.16-3.69-4.16h-1.55v8.38h1.55Z"/>
    <path class="st0" d="M370.07,322.58h.39l3.27,9.15h-.47l-1.91-5.49c-.39-1.11-.72-2.05-1.05-3.19h-.06c-.33,1.14-.67,2.08-1.05,3.19l-1.94,5.49h-.44l3.27-9.15ZM368.21,328.07h4.06v.39h-4.06v-.39Z"/>
    <path class="st0" d="M375.26,322.58h.72l1.97,5.55c.25.69.5,1.39.75,2.08h.06c.25-.69.47-1.39.72-2.08l1.97-5.55h.72v9.15h-.44v-6.38c0-.72.03-1.64.06-2.39h-.06l-.71,2.02-2.07,5.71h-.47l-2.08-5.71-.72-2.02h-.06c.03.75.06,1.66.06,2.39v6.38h-.42v-9.15Z"/>
    <path class="st0" d="M384.94,322.58h4.91v.39h-4.47v3.69h3.75v.39h-3.75v4.3h4.6v.39h-5.05v-9.15Z"/>
    <path class="st0" d="M392.01,322.58h2.52c1.8,0,2.94.67,2.94,2.36s-1.14,2.47-2.94,2.47h-2.08v4.33h-.44v-9.15ZM394.37,327.01c1.69,0,2.63-.67,2.63-2.08s-.94-1.97-2.63-1.97h-1.91v4.05h1.91ZM394.42,327.26l.5-.03,2.69,4.49h-.53l-2.66-4.47Z"/>
    <path class="st0" d="M399.41,322.58h.44v9.15h-.44v-9.15Z"/>
    <path class="st0" d="M402.02,327.13c0-2.89,1.53-4.72,3.86-4.72,1.05,0,1.86.53,2.33,1.08l-.28.31c-.5-.58-1.19-.97-2.05-.97-2.11,0-3.38,1.66-3.38,4.3s1.28,4.35,3.33,4.35c.97,0,1.69-.39,2.39-1.17l.28.28c-.69.8-1.5,1.3-2.69,1.3-2.25,0-3.77-1.89-3.77-4.77Z"/>
    <path class="st0" d="M412.45,322.58h.39l3.27,9.15h-.47l-1.91-5.49c-.39-1.11-.72-2.05-1.05-3.19h-.05c-.33,1.14-.67,2.08-1.05,3.19l-1.94,5.49h-.44l3.27-9.15ZM410.59,328.07h4.06v.39h-4.06v-.39Z"/>
  </g>
  <g>
    <path class="st0" d="M343.97,296.5h.47l4.05,6.71,1.05,1.8h.06c-.03-.89-.06-1.72-.06-2.58v-5.94h.42v9.15h-.47l-4.05-6.71-1.05-1.8h-.06c.03.86.06,1.64.06,2.5v6.02h-.42v-9.15Z"/>
    <path class="st0" d="M352.13,301.05c0-2.89,1.55-4.72,3.72-4.72s3.72,1.83,3.72,4.72-1.55,4.77-3.72,4.77-3.72-1.89-3.72-4.77ZM359.09,301.05c0-2.64-1.3-4.3-3.25-4.3s-3.25,1.66-3.25,4.3,1.3,4.35,3.25,4.35,3.25-1.72,3.25-4.35Z"/>
    <path class="st0" d="M361.72,296.5h2.52c1.8,0,2.94.67,2.94,2.36s-1.14,2.47-2.94,2.47h-2.08v4.33h-.44v-9.15ZM364.08,300.94c1.69,0,2.63-.67,2.63-2.08s-.94-1.97-2.63-1.97h-1.91v4.05h1.91ZM364.14,301.19l.5-.03,2.69,4.49h-.53l-2.66-4.47Z"/>
    <path class="st0" d="M370.99,296.89h-2.97v-.39h6.38v.39h-2.97v8.77h-.44v-8.77Z"/>
    <path class="st0" d="M376.2,296.5h4.91v.39h-4.47v3.69h3.74v.39h-3.74v4.3h4.6v.39h-5.05v-9.15Z"/>
    <path class="st0" d="M385.3,296.5h.39l3.27,9.15h-.47l-1.91-5.49c-.39-1.11-.72-2.05-1.05-3.19h-.05c-.33,1.14-.67,2.08-1.05,3.19l-1.94,5.49h-.44l3.27-9.15ZM383.44,302h4.06v.39h-4.06v-.39Z"/>
    <path class="st0" d="M390.48,296.5h.72l1.97,5.55c.25.69.5,1.39.75,2.08h.06c.25-.69.47-1.39.72-2.08l1.97-5.55h.72v9.15h-.44v-6.38c0-.72.03-1.64.06-2.39h-.06l-.71,2.02-2.07,5.71h-.47l-2.08-5.71-.72-2.02h-.06c.03.75.06,1.66.06,2.39v6.38h-.42v-9.15Z"/>
    <path class="st0" d="M400.16,296.5h4.91v.39h-4.47v3.69h3.75v.39h-3.75v4.3h4.6v.39h-5.05v-9.15Z"/>
    <path class="st0" d="M407.23,296.5h2.52c1.8,0,2.94.67,2.94,2.36s-1.14,2.47-2.94,2.47h-2.08v4.33h-.44v-9.15ZM409.59,300.94c1.69,0,2.63-.67,2.63-2.08s-.94-1.97-2.63-1.97h-1.91v4.05h1.91ZM409.65,301.19l.5-.03,2.69,4.49h-.53l-2.66-4.47Z"/>
    <path class="st0" d="M414.64,296.5h.44v9.15h-.44v-9.15Z"/>
    <path class="st0" d="M417.25,301.05c0-2.89,1.53-4.72,3.86-4.72,1.05,0,1.86.53,2.33,1.08l-.28.31c-.5-.58-1.19-.97-2.05-.97-2.11,0-3.38,1.66-3.38,4.3s1.28,4.35,3.33,4.35c.97,0,1.69-.39,2.39-1.17l.28.28c-.69.8-1.5,1.3-2.69,1.3-2.25,0-3.77-1.89-3.77-4.77Z"/>
    <path class="st0" d="M427.67,296.5h.39l3.27,9.15h-.47l-1.91-5.49c-.39-1.11-.72-2.05-1.05-3.19h-.05c-.33,1.14-.67,2.08-1.05,3.19l-1.94,5.49h-.44l3.27-9.15ZM425.81,302h4.06v.39h-4.06v-.39Z"/>
  </g>
  <g>
    <path class="st0" d="M343.97,270.29h4.91v.39h-4.47v3.69h3.74v.39h-3.74v4.3h4.6v.39h-5.05v-9.15Z"/>
    <path class="st0" d="M351.02,276.03v-5.74h.44v5.63c0,2.52,1.22,3.27,2.55,3.27s2.61-.75,2.61-3.27v-5.63h.42v5.74c0,2.83-1.55,3.58-3.02,3.58s-3-.75-3-3.58Z"/>
    <path class="st0" d="M359.78,270.29h2.52c1.8,0,2.94.67,2.94,2.36s-1.14,2.47-2.94,2.47h-2.08v4.33h-.44v-9.15ZM362.14,274.73c1.69,0,2.63-.67,2.63-2.08s-.94-1.97-2.63-1.97h-1.91v4.05h1.91ZM362.2,274.98l.5-.03,2.69,4.49h-.53l-2.66-4.47Z"/>
    <path class="st0" d="M366.58,274.84c0-2.89,1.55-4.72,3.72-4.72s3.72,1.83,3.72,4.72-1.55,4.77-3.72,4.77-3.72-1.89-3.72-4.77ZM373.54,274.84c0-2.64-1.3-4.3-3.25-4.3s-3.25,1.66-3.25,4.3,1.3,4.35,3.25,4.35,3.25-1.72,3.25-4.35Z"/>
    <path class="st0" d="M376.17,270.29h2.19c2.08,0,3.27.67,3.27,2.5s-1.17,2.61-3.22,2.61h-1.8v4.05h-.44v-9.15ZM378.25,275.01c1.97,0,2.91-.64,2.91-2.22s-.97-2.11-2.97-2.11h-1.58v4.33h1.64Z"/>
    <path class="st0" d="M385.02,270.29h.39l3.27,9.15h-.47l-1.91-5.49c-.39-1.11-.72-2.05-1.05-3.19h-.06c-.33,1.14-.67,2.08-1.05,3.19l-1.94,5.49h-.44l3.27-9.15ZM383.16,275.78h4.06v.39h-4.06v-.39Z"/>
  </g>
  <path class="st0" d="M44.56,250.86c3-3.08,4.44-4.74,4.44-6.33,0-1.14-.61-2.05-2.02-2.05-.83,0-1.58.5-2.14,1.19l-.3-.28c.64-.72,1.41-1.3,2.47-1.3,1.55,0,2.44.97,2.44,2.44,0,1.8-1.64,3.51-4.24,6.27.5-.03,1-.06,1.5-.06h3.19v.39h-5.33v-.28Z"/>
  <path class="st0" d="M44.4,277.82l.28-.3c.53.58,1.25,1.17,2.52,1.17s2.16-.83,2.16-2.08-.94-2.16-3.19-2.16v-.42c2.11,0,2.86-.92,2.86-2.03s-.75-1.75-1.89-1.75c-.83,0-1.58.44-2.08,1l-.28-.31c.58-.58,1.33-1.08,2.36-1.08,1.3,0,2.33.78,2.33,2.11,0,1.19-.75,1.9-1.72,2.22v.06c1.11.22,2.05,1.05,2.05,2.33,0,1.53-1.14,2.5-2.64,2.5-1.41,0-2.22-.67-2.77-1.25Z"/>
  <path class="st0" d="M48.31,300.06c0-.39.03-1.08.06-1.47h-.06c-.22.36-.47.67-.72,1.05l-2.8,3.91h5.3v.39h-5.88v-.22l4.24-5.94h.28v8.88h-.42v-6.6Z"/>
  <path class="st0" d="M44.34,333.4l.28-.3c.53.55,1.22,1.11,2.5,1.11s2.3-1.03,2.3-2.52-.89-2.41-2.27-2.41c-.69,0-1.17.25-1.69.61l-.36-.22.33-4.11h3.97v.39h-3.58l-.3,3.41c.47-.29.97-.5,1.66-.5,1.5,0,2.69.86,2.69,2.8s-1.39,2.94-2.77,2.94-2.19-.64-2.75-1.19Z"/>
  <g>
    <path class="st0" d="M169.75,49.05c0-2.94.92-4.58,2.58-4.58s2.58,1.64,2.58,4.58-.92,4.63-2.58,4.63-2.58-1.69-2.58-4.63ZM174.46,49.05c0-2.75-.83-4.19-2.14-4.19s-2.14,1.44-2.14,4.19.83,4.24,2.14,4.24,2.14-1.5,2.14-4.24Z"/>
    <path class="st0" d="M176.26,55.27c.58-.33,1-.92,1-1.72l-.19-.75.47.58c-.11.19-.28.22-.44.22-.28,0-.5-.17-.5-.5s.25-.5.5-.5c.36,0,.61.33.61.86,0,.94-.56,1.69-1.28,2.14l-.17-.33Z"/>
    <path class="st0" d="M178.9,52.44l.28-.3c.53.58,1.25,1.17,2.52,1.17s2.16-.83,2.16-2.08-.94-2.16-3.19-2.16v-.42c2.11,0,2.86-.92,2.86-2.03s-.75-1.75-1.89-1.75c-.83,0-1.58.44-2.08,1l-.28-.31c.58-.58,1.33-1.08,2.36-1.08,1.3,0,2.33.78,2.33,2.11,0,1.19-.75,1.9-1.72,2.22v.06c1.11.22,2.05,1.05,2.05,2.33,0,1.53-1.14,2.5-2.64,2.5-1.41,0-2.22-.67-2.77-1.25Z"/>
  </g>
  <g>
    <path class="st0" d="M169.75,74.39c0-2.94.92-4.58,2.58-4.58s2.58,1.64,2.58,4.58-.92,4.63-2.58,4.63-2.58-1.69-2.58-4.63ZM174.46,74.39c0-2.75-.83-4.19-2.14-4.19s-2.14,1.44-2.14,4.19.83,4.24,2.14,4.24,2.14-1.5,2.14-4.24Z"/>
    <path class="st0" d="M176.26,80.6c.58-.33,1-.92,1-1.72l-.19-.75.47.58c-.11.19-.28.22-.44.22-.28,0-.5-.17-.5-.5s.25-.5.5-.5c.36,0,.61.33.61.86,0,.94-.56,1.69-1.28,2.14l-.17-.33Z"/>
    <path class="st0" d="M179.23,74.86c0-3.77,1.53-5.05,3.22-5.05.78,0,1.33.33,1.78.83l-.28.3c-.4-.5-.94-.75-1.53-.75-1.47,0-2.75,1.19-2.75,4.66,0,2.16.72,3.77,2.41,3.77,1.08,0,1.89-1.05,1.89-2.36s-.58-2.36-2.03-2.36c-.67,0-1.55.42-2.33,1.5v-.56c.64-.8,1.47-1.33,2.36-1.33,1.55,0,2.44.97,2.44,2.75,0,1.58-1.08,2.75-2.36,2.75-1.78,0-2.83-1.53-2.83-4.16Z"/>
  </g>
  <g>
    <path class="st0" d="M169.75,101.01c0-2.94.92-4.58,2.58-4.58s2.58,1.64,2.58,4.58-.92,4.63-2.58,4.63-2.58-1.69-2.58-4.63ZM174.46,101.01c0-2.75-.83-4.19-2.14-4.19s-2.14,1.44-2.14,4.19.83,4.24,2.14,4.24,2.14-1.5,2.14-4.24Z"/>
    <path class="st0" d="M176.26,107.23c.58-.33,1-.92,1-1.72l-.19-.75.47.58c-.11.19-.28.22-.44.22-.28,0-.5-.17-.5-.5s.25-.5.5-.5c.36,0,.61.33.61.86,0,.94-.56,1.69-1.28,2.14l-.17-.33Z"/>
    <path class="st0" d="M179.29,104.81l.28-.3c.4.5.94.75,1.53.75,1.47,0,2.75-1.19,2.75-4.66,0-2.16-.72-3.77-2.41-3.77-1.08,0-1.89,1.05-1.89,2.36s.58,2.36,2.02,2.36c.67,0,1.55-.42,2.33-1.5v.56c-.64.8-1.47,1.33-2.36,1.33-1.55,0-2.44-.97-2.44-2.75,0-1.58,1.08-2.75,2.36-2.75,1.78,0,2.83,1.53,2.83,4.16,0,3.77-1.53,5.05-3.22,5.05-.78,0-1.35-.33-1.78-.83Z"/>
  </g>
  <g>
    <path class="st0" d="M170.25,131.22h2.11v-7.66h-1.58v-.3c.69-.11,1.25-.31,1.64-.53h.36v8.49h1.97v.39h-4.49v-.39Z"/>
    <path class="st0" d="M176.26,133.36c.58-.33,1-.92,1-1.72l-.19-.75.47.58c-.11.19-.28.22-.44.22-.28,0-.5-.17-.5-.5s.25-.5.5-.5c.36,0,.61.33.61.86,0,.94-.56,1.69-1.28,2.14l-.17-.33Z"/>
    <path class="st0" d="M179.07,131.33c3-3.08,4.44-4.74,4.44-6.33,0-1.14-.61-2.05-2.02-2.05-.83,0-1.58.5-2.14,1.19l-.3-.28c.64-.72,1.41-1.3,2.47-1.3,1.55,0,2.44.97,2.44,2.44,0,1.8-1.64,3.51-4.24,6.27.5-.03,1-.06,1.5-.06h3.19v.39h-5.33v-.28Z"/>
  </g>
  <path class="st0" d="M172.1,157.85h-2.58v-.39h2.58v-2.83h.44v2.83h2.58v.39h-2.58v2.83h-.44v-2.83Z"/>
  <path class="st0" d="M169.61,37.91h3v.42h-3v-.42Z"/>
  <g>
    <path class="st0" d="M167.48,18.63h1.33l3.06,9.1h-1.25l-1.57-5.08c-.32-1.01-.62-2.01-.9-3.07h-.05c-.29,1.05-.58,2.05-.9,3.07l-1.59,5.08h-1.19l3.06-9.1ZM166.04,24.03h4.17v.94h-4.17v-.94Z"/>
    <path class="st0" d="M174.17,18.63h1.15v8.11h4.49v.98h-5.64v-9.1Z"/>
    <path class="st0" d="M181.63,18.63h1.42l1.28,3.88.44,1.47h.06l.43-1.47,1.29-3.88h1.42v9.1h-1.11v-4.55c0-.89.14-2.44.19-3.22h-.04l-.51,1.78-1.3,3.58h-.83l-1.28-3.58-.53-1.78h-.03c.08.78.19,2.33.19,3.22v4.55h-1.08v-9.1Z"/>
    <path class="st0" d="M192.44,18.63h1.33l3.07,9.1h-1.25l-1.57-5.08c-.32-1.01-.62-2.01-.9-3.07h-.05c-.29,1.05-.58,2.05-.9,3.07l-1.59,5.08h-1.19l3.06-9.1ZM191,24.03h4.17v.94h-4.17v-.94Z"/>
    <path class="st0" d="M198.17,23.18c0-2.93,1.71-4.72,4.08-4.72,1.1,0,1.96.53,2.5,1.11l-.67.73c-.47-.5-1.07-.82-1.83-.82-1.73,0-2.87,1.4-2.87,3.66s1.14,3.72,2.87,3.72c.83,0,1.47-.36,2.04-1l.67.71c-.71.83-1.61,1.32-2.82,1.32-2.25,0-3.97-1.75-3.97-4.72Z"/>
    <path class="st0" d="M207.17,18.63h5.63v.98h-4.47v2.84h3.77v.98h-3.77v3.3h4.61v.98h-5.77v-9.1Z"/>
    <path class="st0" d="M215.04,18.63h1.28l2.91,5.71.87,1.89h.03c-.04-.9-.15-1.93-.15-2.88v-4.72h1.11v9.1h-1.28l-2.91-5.71-.87-1.89h-.03c.04.93.15,1.9.15,2.84v4.76h-1.11v-9.1Z"/>
    <path class="st0" d="M225.72,18.63h1.33l3.07,9.1h-1.25l-1.57-5.08c-.32-1.01-.62-2.01-.9-3.07h-.05c-.29,1.05-.58,2.05-.9,3.07l-1.59,5.08h-1.19l3.06-9.1ZM224.28,24.03h4.17v.94h-4.17v-.94Z"/>
    <path class="st0" d="M231.55,18.63h1.41l1.28,3.88.44,1.47h.05l.43-1.47,1.29-3.88h1.41v9.1h-1.11v-4.55c0-.89.14-2.44.19-3.22h-.04l-.51,1.78-1.3,3.58h-.83l-1.28-3.58-.53-1.78h-.03c.08.78.2,2.33.2,3.22v4.55h-1.08v-9.1Z"/>
    <path class="st0" d="M240.18,26.75h2.26v-7.13h-2.26v-.98h5.69v.98h-2.26v7.13h2.26v.98h-5.69v-.98Z"/>
    <path class="st0" d="M248.77,18.63h5.63v.98h-4.47v2.84h3.77v.98h-3.77v3.3h4.61v.98h-5.77v-9.1Z"/>
    <path class="st0" d="M256.64,18.63h1.28l2.91,5.71.87,1.89h.03c-.04-.9-.15-1.93-.15-2.88v-4.72h1.11v9.1h-1.28l-2.91-5.71-.88-1.89h-.03c.04.93.15,1.9.15,2.84v4.76h-1.11v-9.1Z"/>
    <path class="st0" d="M267.41,19.62h-3.01v-.98h7.18v.98h-3.01v8.11h-1.16v-8.11Z"/>
    <path class="st0" d="M272.81,23.14c0-2.94,1.44-4.67,3.5-4.67s3.49,1.73,3.49,4.67-1.44,4.76-3.49,4.76-3.5-1.78-3.5-4.76ZM278.6,23.14c0-2.29-.92-3.65-2.29-3.65s-2.29,1.36-2.29,3.65.92,3.73,2.29,3.73,2.29-1.4,2.29-3.73Z"/>
    <path class="st0" d="M283.35,23.87c0-2.68,1.18-4.8,3.11-6.3l.64.58c-1.86,1.57-2.72,3.38-2.72,5.71s.86,4.15,2.72,5.71l-.64.58c-1.93-1.5-3.11-3.62-3.11-6.3Z"/>
    <path class="st0" d="M289.52,23.18c0-2.94,1.68-4.72,4.04-4.72,1.21,0,2,.57,2.51,1.11l-.67.73c-.43-.46-.97-.82-1.84-.82-1.71,0-2.82,1.4-2.82,3.66s1.01,3.72,2.79,3.72c.64,0,1.23-.19,1.57-.53v-2.37h-1.8v-.96h2.88v3.83c-.57.58-1.54,1.05-2.72,1.05-2.29,0-3.94-1.75-3.94-4.72Z"/>
    <path class="st0" d="M298.48,18.63h2.58c1.86,0,3.12.62,3.12,2.22,0,.9-.51,1.71-1.59,1.98v.06c1.33.21,2.11.93,2.11,2.18,0,1.79-1.39,2.66-3.43,2.66h-2.79v-9.1ZM300.86,22.46c1.55,0,2.18-.5,2.18-1.51s-.72-1.35-2.12-1.35h-1.29v2.86h1.23ZM301.1,26.76c1.55,0,2.46-.51,2.46-1.75,0-1.12-.86-1.58-2.46-1.58h-1.47v3.33h1.47Z"/>
    <path class="st0" d="M307.12,29.59c1.86-1.57,2.72-3.38,2.72-5.71s-.86-4.15-2.72-5.71l.64-.58c1.93,1.5,3.11,3.62,3.11,6.3s-1.18,4.8-3.11,6.3l-.64-.58Z"/>
  </g>
  <g>
    <path class="st0" d="M398.07,18.63h1.33l3.06,9.1h-1.25l-1.57-5.08c-.32-1.01-.62-2.01-.9-3.07h-.05c-.29,1.05-.58,2.05-.9,3.07l-1.59,5.08h-1.19l3.06-9.1ZM396.62,24.03h4.17v.94h-4.17v-.94Z"/>
    <path class="st0" d="M404.03,18.63h1.28l2.91,5.71.88,1.89h.03c-.04-.9-.15-1.93-.15-2.88v-4.72h1.11v9.1h-1.28l-2.91-5.71-.87-1.89h-.03c.04.93.15,1.9.15,2.84v4.76h-1.11v-9.1ZM406.18,16.92c-.35,0-.61.32-.67.9l-.78-.06c.04-1.07.58-1.71,1.41-1.71,1.04,0,1.4.99,2.05.99.35,0,.6-.32.67-.92l.78.06c-.04,1.07-.58,1.71-1.42,1.71-1.04,0-1.4-.97-2.05-.97Z"/>
    <path class="st0" d="M411.88,23.14c0-2.94,1.44-4.67,3.5-4.67s3.5,1.73,3.5,4.67-1.44,4.76-3.5,4.76-3.5-1.78-3.5-4.76ZM417.66,23.14c0-2.29-.92-3.65-2.29-3.65s-2.29,1.36-2.29,3.65.92,3.73,2.29,3.73,2.29-1.4,2.29-3.73Z"/>
    <path class="st0" d="M420.46,26.55l.69-.8c.69.68,1.64,1.12,2.66,1.12,1.25,0,1.97-.6,1.97-1.43,0-.97-.71-1.25-1.62-1.64l-1.32-.58c-.9-.36-1.96-1-1.96-2.34s1.25-2.41,2.98-2.41c1.14,0,2.14.46,2.8,1.12l-.61.75c-.6-.53-1.29-.85-2.23-.85-1.05,0-1.76.5-1.76,1.32,0,.87.85,1.19,1.62,1.5l1.28.57c1.12.44,2.01,1.08,2.01,2.43,0,1.44-1.22,2.59-3.22,2.59-1.33,0-2.48-.53-3.3-1.34Z"/>
    <path class="st0" d="M439.67,18.63h1.33l3.06,9.1h-1.25l-1.57-5.08c-.32-1.01-.62-2.01-.9-3.07h-.06c-.29,1.05-.58,2.05-.9,3.07l-1.6,5.08h-1.19l3.07-9.1ZM438.22,24.03h4.18v.94h-4.18v-.94Z"/>
    <path class="st0" d="M445.39,23.18c0-2.93,1.71-4.72,4.08-4.72,1.1,0,1.96.53,2.5,1.11l-.66.73c-.47-.5-1.07-.82-1.83-.82-1.73,0-2.87,1.4-2.87,3.66s1.14,3.72,2.87,3.72c.83,0,1.47-.36,2.04-1l.67.71c-.71.83-1.61,1.32-2.82,1.32-2.25,0-3.97-1.75-3.97-4.72Z"/>
    <path class="st0" d="M456.39,19.62h-3.01v-.98h7.19v.98h-3.01v8.11h-1.16v-8.11Z"/>
    <path class="st0" d="M462.45,26.75h2.26v-7.13h-2.26v-.98h5.69v.98h-2.26v7.13h2.26v.98h-5.69v-.98Z"/>
    <path class="st0" d="M470.03,18.63h1.25l1.46,4.91c.32,1.07.54,1.94.88,3h.05c.33-1.05.57-1.93.88-3l1.46-4.91h1.19l-2.88,9.1h-1.36l-2.91-9.1Z"/>
    <path class="st0" d="M478.44,23.14c0-2.94,1.44-4.67,3.49-4.67s3.5,1.73,3.5,4.67-1.44,4.76-3.5,4.76-3.49-1.78-3.49-4.76ZM484.22,23.14c0-2.29-.92-3.65-2.29-3.65s-2.29,1.36-2.29,3.65.92,3.73,2.29,3.73,2.29-1.4,2.29-3.73Z"/>
  </g>
  <g>
    <path class="st0" d="M16.54,188.7h1.33l3.07,9.1h-1.25l-1.57-5.08c-.32-1.01-.62-2.01-.9-3.07h-.06c-.29,1.05-.58,2.05-.9,3.07l-1.59,5.08h-1.19l3.07-9.1ZM15.09,194.1h4.17v.94h-4.17v-.94Z"/>
    <path class="st0" d="M22.57,188.7h2.25c2.73,0,4.22,1.62,4.22,4.51s-1.48,4.59-4.16,4.59h-2.3v-9.1ZM24.73,196.84c2.07,0,3.09-1.33,3.09-3.63s-1.03-3.55-3.09-3.55h-1v7.18h1Z"/>
    <path class="st0" d="M31,196.82h2.26v-7.13h-2.26v-.98h5.69v.98h-2.26v7.13h2.26v.98h-5.69v-.98Z"/>
    <path class="st0" d="M38.9,193.25c0-2.93,1.71-4.72,4.08-4.72,1.1,0,1.96.53,2.5,1.11l-.67.73c-.47-.5-1.07-.82-1.83-.82-1.73,0-2.87,1.4-2.87,3.66s1.14,3.72,2.87,3.72c.83,0,1.47-.36,2.04-1l.67.71c-.71.83-1.61,1.32-2.82,1.32-2.25,0-3.97-1.75-3.97-4.72Z"/>
    <path class="st0" d="M49.9,189.69h-3.01v-.98h7.19v.98h-3.01v8.11h-1.17v-8.11Z"/>
    <path class="st0" d="M55.96,196.82h2.26v-7.13h-2.26v-.98h5.69v.98h-2.26v7.13h2.26v.98h-5.69v-.98Z"/>
    <path class="st0" d="M63.54,188.7h1.25l1.46,4.91c.32,1.07.54,1.94.87,3h.06c.33-1.05.57-1.93.87-3l1.46-4.91h1.19l-2.88,9.1h-1.36l-2.91-9.1Z"/>
    <path class="st0" d="M72.6,196.82h2.26v-7.13h-2.26v-.98h5.69v.98h-2.26v7.13h2.26v.98h-5.69v-.98Z"/>
    <path class="st0" d="M80.81,188.7h2.25c2.73,0,4.22,1.62,4.22,4.51s-1.48,4.59-4.16,4.59h-2.3v-9.1ZM82.97,196.84c2.07,0,3.09-1.33,3.09-3.63s-1.03-3.55-3.09-3.55h-1v7.18h1Z"/>
    <path class="st0" d="M91.42,188.7h1.33l3.07,9.1h-1.25l-1.57-5.08c-.32-1.01-.62-2.01-.9-3.07h-.06c-.29,1.05-.58,2.05-.9,3.07l-1.59,5.08h-1.19l3.07-9.1ZM89.97,194.1h4.17v.94h-4.17v-.94Z"/>
    <path class="st0" d="M97.45,188.7h2.25c2.73,0,4.22,1.62,4.22,4.51s-1.48,4.59-4.16,4.59h-2.3v-9.1ZM99.61,196.84c2.07,0,3.09-1.33,3.09-3.63s-1.03-3.55-3.09-3.55h-1v7.18h1Z"/>
  </g>
  <g>
    <path class="st0" d="M402.04,193.25c0-2.93,1.71-4.72,4.08-4.72,1.1,0,1.96.53,2.5,1.11l-.67.73c-.47-.5-1.07-.82-1.83-.82-1.73,0-2.87,1.4-2.87,3.66s1.14,3.72,2.87,3.72c.83,0,1.47-.36,2.04-1l.67.71c-.71.83-1.61,1.32-2.82,1.32-2.25,0-3.97-1.75-3.97-4.72Z"/>
    <path class="st0" d="M410.12,193.21c0-2.94,1.44-4.67,3.5-4.67s3.5,1.73,3.5,4.67-1.44,4.76-3.5,4.76-3.5-1.78-3.5-4.76ZM415.91,193.21c0-2.29-.92-3.65-2.29-3.65s-2.29,1.36-2.29,3.65.92,3.73,2.29,3.73,2.29-1.4,2.29-3.73Z"/>
    <path class="st0" d="M418.92,188.7h1.28l2.91,5.71.87,1.89h.03c-.04-.9-.15-1.93-.15-2.88v-4.72h1.11v9.1h-1.28l-2.91-5.71-.87-1.89h-.03c.04.93.15,1.9.15,2.84v4.76h-1.11v-9.1Z"/>
    <path class="st0" d="M429.68,189.69h-3.01v-.98h7.19v.98h-3.01v8.11h-1.17v-8.11Z"/>
    <path class="st0" d="M435.73,196.82h2.26v-7.13h-2.26v-.98h5.69v.98h-2.26v7.13h2.26v.98h-5.69v-.98Z"/>
    <path class="st0" d="M443.87,188.7h1.28l2.91,5.71.87,1.89h.03c-.04-.9-.15-1.93-.15-2.88v-4.72h1.11v9.1h-1.28l-2.91-5.71-.87-1.89h-.03c.04.93.15,1.9.15,2.84v4.76h-1.11v-9.1Z"/>
    <path class="st0" d="M452.64,188.7h5.63v.98h-4.47v2.84h3.77v.98h-3.77v3.3h4.61v.98h-5.77v-9.1Z"/>
    <path class="st0" d="M460.51,188.7h1.28l2.91,5.71.87,1.89h.03c-.04-.9-.15-1.93-.15-2.88v-4.72h1.11v9.1h-1.28l-2.91-5.71-.87-1.89h-.03c.04.93.15,1.9.15,2.84v4.76h-1.11v-9.1Z"/>
    <path class="st0" d="M471.27,189.69h-3.01v-.98h7.19v.98h-3.01v8.11h-1.17v-8.11Z"/>
    <path class="st0" d="M477.6,188.7h5.63v.98h-4.47v2.84h3.77v.98h-3.77v3.3h4.61v.98h-5.77v-9.1Z"/>
  </g>
  <rect class="st11" x="13.47" y="211.42" width="22.86" height="22.25"/>
  <rect class="st9" x="13.47" y="237.61" width="22.86" height="22.25"/>
  <rect class="st12" x="13.47" y="263.8" width="22.86" height="22.25"/>
  <rect class="st10" x="13.47" y="290" width="22.86" height="22.25"/>
  <rect class="st13" x="13.47" y="316.19" width="22.86" height="22.25"/>
  <rect class="st8" x="456.96" y="35.21" width="29.46" height="22.25"/>
  <rect class="st8" x="426.5" y="61.4" width="58.92" height="22.25"/>
  <rect class="st8" x="397.04" y="87.6" width="88.39" height="22.25"/>
  <rect class="st8" x="367.58" y="113.79" width="117.85" height="22.25"/>
  <rect class="st8" x="338.12" y="139.98" width="147.31" height="22.25"/>
  <rect class="st1" x="195.88" y="139.98" width="114.98" height="22.25"/>
  <rect class="st1" x="195.88" y="113.79" width="114.98" height="22.25"/>
  <rect class="st1" x="195.88" y="87.6" width="114.98" height="22.25"/>
  <rect class="st1" x="195.88" y="61.4" width="114.98" height="22.25"/>
  <rect class="st1" x="195.88" y="35.21" width="114.98" height="22.25"/>
  <rect class="st4" x="338.12" y="211.42" width="147.31" height="22.25"/>
  <rect class="st7" x="338.12" y="237.61" width="147.31" height="22.25"/>
  <rect class="st6" x="338.12" y="263.8" width="147.31" height="22.25"/>
  <rect class="st5" x="338.12" y="290" width="147.31" height="22.25"/>
  <rect class="st3" x="338.12" y="316.19" width="147.31" height="22.25"/>
  <g>
    <rect class="st0" x="13.47" y="35.21" width="7.62" height="7.42"/>
    <rect class="st0" x="28.71" y="35.21" width="7.62" height="7.42"/>
    <rect class="st0" x="21.09" y="42.63" width="7.62" height="7.42"/>
    <rect class="st0" x="13.47" y="50.05" width="7.62" height="7.42"/>
    <rect class="st0" x="28.71" y="50.05" width="7.62" height="7.42"/>
  </g>
  <g>
    <rect class="st0" x="13.47" y="61.4" width="7.62" height="7.42"/>
    <rect class="st0" x="13.47" y="68.82" width="7.62" height="7.42"/>
    <rect class="st0" x="28.71" y="61.4" width="7.62" height="7.42"/>
    <rect class="st0" x="28.71" y="68.82" width="7.62" height="7.42"/>
    <rect class="st0" x="21.09" y="76.24" width="7.62" height="7.42"/>
    <rect class="st0" x="28.71" y="76.24" width="7.62" height="7.42"/>
  </g>
  <g>
    <rect class="st0" x="13.47" y="87.6" width="7.62" height="7.42"/>
    <rect class="st0" x="13.47" y="95.01" width="7.62" height="7.42"/>
    <rect class="st0" x="28.71" y="87.6" width="7.62" height="7.42"/>
    <rect class="st0" x="28.71" y="95.01" width="7.62" height="7.42"/>
    <rect class="st0" x="21.09" y="102.43" width="7.62" height="7.42"/>
    <rect class="st0" x="21.09" y="87.6" width="7.62" height="7.42"/>
    <rect class="st0" x="13.47" y="102.43" width="7.62" height="7.42"/>
    <rect class="st0" x="28.71" y="102.43" width="7.62" height="7.42"/>
  </g>
  <g>
    <rect class="st0" x="13.47" y="113.79" width="7.62" height="7.42"/>
    <rect class="st0" x="13.47" y="121.21" width="7.62" height="7.42"/>
    <rect class="st0" x="28.71" y="121.21" width="7.62" height="7.42"/>
    <rect class="st0" x="21.09" y="128.62" width="7.62" height="7.42"/>
    <rect class="st0" x="21.09" y="113.79" width="7.62" height="7.42"/>
    <rect class="st0" x="28.71" y="128.62" width="7.62" height="7.42"/>
  </g>
  <g>
    <rect class="st0" x="21.09" y="147.4" width="7.62" height="7.42"/>
    <rect class="st0" x="13.47" y="147.4" width="7.62" height="7.42"/>
    <rect class="st0" x="28.71" y="147.4" width="7.62" height="7.42"/>
    <rect class="st0" x="21.09" y="154.82" width="7.62" height="7.42"/>
    <rect class="st0" x="21.09" y="139.98" width="7.62" height="7.42"/>
    <rect class="st0" x="13.47" y="154.82" width="7.62" height="7.42"/>
  </g>
  <line class="st2" x1="310.86" y1="57.46" x2="164.42" y2="57.46"/>
  <line class="st2" x1="310.86" y1="83.66" x2="164.42" y2="83.66"/>
  <line class="st2" x1="310.86" y1="109.85" x2="164.42" y2="109.85"/>
  <line class="st2" x1="310.86" y1="136.04" x2="164.42" y2="136.04"/>
</svg>