<?xml version="1.0" encoding="UTF-8"?>
<svg id="Capa_1" xmlns="http://www.w3.org/2000/svg" version="1.1" viewBox="0 0 379.82 66.89">
  <!-- Generator: Adobe Illustrator 29.0.0, SVG Export Plug-In . SVG Version: 2.1.0 Build 186)  -->
  <defs>
    <style>
      .st0 {
        fill: #fff;
      }
    </style>
  </defs>
  <g>
    <path class="st0" d="M4.03,40.66c0,1.1-.9,2-2,2h-.03c-1.11,0-2-.9-2-2V11.76c0-1.11.89-2,2-2h.03c1.1,0,2,.89,2,2v28.9ZM16.11,7.76c0,1.1-.89,2-2,2H6.03c-1.1,0-2-.9-2-2v-.12c0-1.11.9-2,2-2h8.09c1.11,0,2,.89,2,2v.12ZM16.11,44.77c0,1.11-.89,2-2,2H6.03c-1.1,0-2-.89-2-2v-.12c0-1.1.9-2,2-2h8.09c1.11,0,2,.9,2,2v.12ZM10.05,30.32h4.06s2,0,2,2v.12s0,2-2,2h-4.06s-2,0-2-2v-.12s0-2,2-2ZM20.14,11.87c0,1.1-.89,2-2,2h-.03c-1.11,0-2-.9-2-2v-.12c0-1.11.89-2,2-2h.03c1.1,0,2,.89,2,2v.12ZM20.14,40.66c0,1.1-.89,2-2,2h-.03c-1.11,0-2-.9-2-2v-4.23c0-1.1.89-2,2-2h.03c1.1,0,2,.9,2,2v4.23Z"/>
    <path class="st0" d="M28.25,44.77c0,1.11-.9,2-2,2h-.03c-1.11,0-2-.89-2-2V15.87c0-1.11.9-2,2-2h.03c1.1,0,2,.89,2,2v28.9ZM32.28,11.87c0,1.1-.9,2-2,2h-.03c-1.11,0-2-.9-2-2v-.12c0-1.11.89-2,2-2h.03c1.1,0,2,.89,2,2v.12ZM40.34,24.21c0,1.1-.89,2-2,2h-8.09c-1.11,0-2-.9-2-2v-.12c0-1.1.89-2,2-2h8.09c1.11,0,2,.9,2,2v.12ZM36.31,7.76c0,1.1-.9,2-2,2h-.03c-1.1,0-2-.9-2-2v-.12c0-1.11.9-2,2-2h.03c1.1,0,2,.89,2,2v.12ZM40.34,11.87c0,1.1-.89,2-2,2h-.03c-1.1,0-2-.9-2-2v-.12c0-1.11.9-2,2-2h.03c1.11,0,2,.89,2,2v.12ZM44.37,44.77c0,1.11-.89,2-2,2h-.03c-1.1,0-2-.89-2-2V15.87c0-1.11.9-2,2-2h.03c1.11,0,2,.89,2,2v28.9Z"/>
    <path class="st0" d="M52.47,44.77c0,1.1-.89,2-2,2h-.03c-1.1,0-2-.9-2-2V7.64c0-1.1.9-2,2-2h.03c1.11,0,2,.9,2,2v37.13ZM54.47,9.76h.03s2,0,2,2v.12s0,2-2,2h-.03s-2,0-2-2v-.12s0-2,2-2ZM60.53,15.99c0,1.11-.9,2-2,2h-.03c-1.11,0-2-.89-2-2v-.12c0-1.1.9-2,2-2h.03c1.1,0,2,.9,2,2v.12ZM64.56,11.87c0,1.1-.9,2-2,2h-.03c-1.11,0-2-.9-2-2v-.12c0-1.1.89-2,2-2h.03c1.1,0,2,.9,2,2v.12ZM66.56,5.65h.03s2,0,2,2v37.13s0,2-2,2h-.03s-2,0-2-2V7.64s0-2,2-2Z"/>
    <path class="st0" d="M76.69,44.77c0,1.11-.89,2-2,2h-.03c-1.1,0-2-.89-2-2V7.64c0-1.11.9-2,2-2h.03c1.11,0,2,.89,2,2v37.13ZM92.81,7.76c0,1.1-.89,2-2,2h-12.12c-1.11,0-2-.9-2-2v-.12c0-1.11.9-2,2-2h12.12c1.11,0,2,.89,2,2v.12ZM88.78,24.21c0,1.1-.89,2-2,2h-8.09c-1.11,0-2-.9-2-2v-.12c0-1.1.9-2,2-2h8.09c1.1,0,2,.9,2,2v.12ZM92.81,44.77c0,1.11-.89,2-2,2h-12.12c-1.11,0-2-.89-2-2v-.12c0-1.1.9-2,2-2h12.12c1.11,0,2,.9,2,2v.12Z"/>
    <path class="st0" d="M108.98,7.76c0,1.1-.9,2-2,2h-8.09c-1.11,0-2-.9-2-2v-.12c0-1.11.9-2,2-2h8.09c1.1,0,2,.89,2,2v.12ZM100.92,44.77c0,1.11-.9,2-2,2h-.03c-1.11,0-2-.89-2-2V15.87c0-1.11.9-2,2-2h.03c1.1,0,2,.89,2,2v28.9ZM108.98,28.32c0,1.1-.9,2-2,2h-4.06c-1.11,0-2-.9-2-2v-.12c0-1.1.89-2,2-2h4.06c1.1,0,2,.9,2,2v.12ZM113,11.87c0,1.1-.89,2-2,2h-.03c-1.1,0-2-.9-2-2v-.12c0-1.11.9-2,2-2h.03c1.11,0,2,.89,2,2v.12ZM113,24.21c0,1.1-.89,2-2,2h-.03c-1.1,0-2-.9-2-2v-.12c0-1.1.9-2,2-2h.03c1.11,0,2,.9,2,2v.12ZM113,32.44c0,1.1-.89,2-2,2h-.03c-1.1,0-2-.9-2-2v-.12c0-1.1.9-2,2-2h.03c1.11,0,2,.9,2,2v.12ZM117.03,20.1c0,1.1-.89,2-2,2h-.03c-1.1,0-2-.9-2-2v-4.23c0-1.11.89-2,2-2h.03c1.11,0,2,.89,2,2v4.23ZM117.03,40.66c0,1.1-.89,2-2,2h-.03c-1.1,0-2-.9-2-2v-4.23c0-1.1.89-2,2-2h.03c1.11,0,2,.9,2,2v4.23ZM117.03,44.77c0,1.11-.89,2-2,2h-.03c-1.1,0-2-.89-2-2v-.12c0-1.1.89-2,2-2h.03c1.11,0,2,.9,2,2v.12Z"/>
    <path class="st0" d="M137.47,44.77c0,1.11-.89,2-2,2h-.03c-1.1,0-2-.89-2-2V7.64c0-1.11.9-2,2-2h.03c1.11,0,2,.89,2,2v37.13ZM145.53,7.76c0,1.1-.9,2-2,2h-4.07c-1.1,0-2-.9-2-2v-.12c0-1.11.9-2,2-2h4.07c1.1,0,2,.89,2,2v.12ZM145.53,44.77c0,1.11-.9,2-2,2h-4.07c-1.1,0-2-.89-2-2v-.12c0-1.1.9-2,2-2h4.07c1.1,0,2,.9,2,2v.12ZM149.56,11.87c0,1.1-.9,2-2,2h-.03c-1.11,0-2-.9-2-2v-.12c0-1.11.89-2,2-2h.03c1.1,0,2,.89,2,2v.12ZM149.56,40.66c0,1.1-.9,2-2,2h-.03c-1.11,0-2-.9-2-2v-.12c0-1.1.89-2,2-2h.03c1.1,0,2,.9,2,2v.12ZM153.59,36.55c0,1.1-.89,2-2,2h-.03c-1.1,0-2-.9-2-2V15.87c0-1.11.89-2,2-2h.03c1.1,0,2,.89,2,2v20.68Z"/>
    <path class="st0" d="M161.7,44.77c0,1.11-.89,2-2,2h-.03c-1.1,0-2-.89-2-2V7.64c0-1.11.9-2,2-2h.03c1.11,0,2,.89,2,2v37.13ZM177.81,7.76c0,1.1-.89,2-2,2h-12.12c-1.11,0-2-.9-2-2v-.12c0-1.11.9-2,2-2h12.12c1.11,0,2,.89,2,2v.12ZM173.78,24.21c0,1.1-.89,2-2,2h-8.09c-1.11,0-2-.9-2-2v-.12c0-1.1.9-2,2-2h8.09c1.1,0,2,.9,2,2v.12ZM177.81,44.77c0,1.11-.89,2-2,2h-12.12c-1.11,0-2-.89-2-2v-.12c0-1.1.9-2,2-2h12.12c1.11,0,2,.9,2,2v.12Z"/>
    <path class="st0" d="M198.25,44.77c0,1.11-.89,2-2,2h-.03c-1.1,0-2-.89-2-2V7.64c0-1.11.9-2,2-2h.03c1.11,0,2,.89,2,2v37.13ZM210.34,7.76c0,1.1-.89,2-2,2h-8.09c-1.1,0-2-.9-2-2v-.12c0-1.11.9-2,2-2h8.09c1.1,0,2,.89,2,2v.12ZM200.25,22.1h8.09s2,0,2,2v.12s0,2-2,2h-8.09s-2,0-2-2v-.12s0-2,2-2ZM210.34,44.77c0,1.11-.89,2-2,2h-8.09c-1.1,0-2-.89-2-2v-.12c0-1.1.9-2,2-2h8.09c1.1,0,2,.9,2,2v.12ZM214.37,20.1c0,1.1-.9,2-2,2h-.03c-1.1,0-2-.9-2-2v-8.34c0-1.11.9-2,2-2h.03c1.1,0,2,.89,2,2v8.34ZM212.34,26.21h.03s2,0,2,2v12.45s0,2-2,2h-.03s-2,0-2-2v-12.45s0-2,2-2Z"/>
    <path class="st0" d="M220.5,38.54h-.08s-1.98,0-1.98-1.98V15.85s0-1.98,1.98-1.98h.08s1.97,0,1.97,1.98v20.71s0,1.98-1.97,1.98ZM226.5,11.78v.08s0,2.01-2.01,2.01c0,0-2.01,0-2.01-2.01v-.08s0-2.01,2.01-2.01c0,0,2.01,0,2.01,2.01ZM222.47,40.64v-.08s0-2.01,2.01-2.01c0,0,2.01,0,2.01,2.01v.08s0,2.01-2.01,2.01c0,0-2.01,0-2.01-2.01ZM226.5,44.76v-.08s0-2.02,2.01-2.01c0,0,2.01,0,2.01,2.01v.08s0,2.01-2.01,2.01c0,0-2.01,0-2.01-2.01ZM230.53,7.66v.08s0,2.01-2.01,2.01c0,0-2.01-.08-2.01-2.01v-.08s0-2.01,2.01-2.01c0,0,2.01,0,2.01,2.01ZM230.53,40.64v-.08s0-2.01,2.01-2.01c0,0,2.01,0,2.01,2.01v.08s0,2.01-2.01,2.01c0,0-2.01,0-2.01-2.01ZM234.56,11.78v.08s0,2.01-2.01,2.01c0,0-2.01,0-2.01-2.01v-.08s0-2.01,2.01-2.01c0,0,2.01,0,2.01,2.01ZM236.61,38.54h-.08s-1.97,0-1.97-1.98V15.85s0-1.98,1.97-1.98h.08s1.97,0,1.97,1.98v20.71s0,1.98-1.97,1.98Z"/>
    <path class="st0" d="M244.5,5.65h.03s2,0,2,2v37.13s0,2-2,2h-.03s-2,0-2-2V7.64s0-2,2-2ZM262.65,44.77c0,1.1-.89,2-2,2h-12.12c-1.1,0-2-.9-2-2v-.12c0-1.11.9-2,2-2h12.12c1.1,0,2,.89,2,2v.12Z"/>
    <path class="st0" d="M270.75,20.1c0,1.1-.89,2-2,2h-.04c-1.11,0-2-.9-2-2v-8.34c0-1.11.89-2,2-2h.04c1.1,0,2,.89,2,2v8.34ZM268.72,42.66h12.12s2,0,2,2v.12s0,2-2,2h-12.12s-2,0-2-2v-.12s0-2,2-2ZM286.87,7.76c0,1.1-.9,2-2,2h-12.12c-1.1,0-2-.9-2-2v-.12c0-1.11.9-2,2-2h12.12c1.1,0,2,.89,2,2v.12ZM278.81,24.21c0,1.1-.89,2-2,2h-4.06c-1.1,0-2-.9-2-2v-.12c0-1.1.9-2,2-2h4.06c1.11,0,2,.9,2,2v.12ZM282.84,28.32c0,1.1-.89,2-2,2h-.03c-1.1,0-2-.9-2-2v-.12c0-1.1.9-2,2-2h.03c1.11,0,2,.9,2,2v.12ZM286.87,40.66c0,1.1-.9,2-2,2h-.03c-1.11,0-2-.9-2-2v-8.34c0-1.1.9-2,2-2h.03c1.1,0,2,.9,2,2v8.34Z"/>
    <path class="st0" d="M299.09,44.77c0,1.1-.89,2-2,2h-.04c-1.11,0-2-.9-2-2V7.64c0-1.1.89-2,2-2h.04c1.1,0,2,.9,2,2v37.13Z"/>
    <path class="st0" d="M309.31,5.65h.03s2,0,2,2v37.13s0,2-2,2h-.03s-2,0-2-2V7.64s0-2,2-2ZM327.46,44.77c0,1.1-.89,2-2,2h-12.12c-1.1,0-2-.9-2-2v-.12c0-1.11.9-2,2-2h12.12c1.1,0,2,.89,2,2v.12Z"/>
    <path class="st0" d="M333.53,5.65h.03s2,0,2,2v37.13s0,2-2,2h-.03s-2,0-2-2V7.64s0-2,2-2ZM351.68,44.77c0,1.1-.9,2-2,2h-12.12c-1.1,0-2-.9-2-2v-.12c0-1.11.89-2,2-2h12.12c1.1,0,2,.89,2,2v.12Z"/>
    <path class="st0" d="M357.81,38.54h-.08s-1.97,0-1.97-1.98V15.85s0-1.98,1.97-1.98h.08s1.98,0,1.98,1.98v20.71s0,1.98-1.98,1.98ZM363.81,11.78v.08s0,2.01-2.01,2.01c0,0-2.01,0-2.01-2.01v-.08s0-2.01,2.01-2.01c0,0,2.01,0,2.01,2.01ZM359.79,40.64v-.08s0-2.01,2.01-2.01c0,0,2.01,0,2.01,2.01v.08s0,2.01-2.01,2.01c0,0-2.01,0-2.01-2.01ZM363.81,44.76v-.08s0-2.02,2.01-2.01c0,0,2.01,0,2.01,2.01v.08s0,2.01-2.01,2.01c0,0-2.01,0-2.01-2.01ZM367.84,7.66v.08s0,2.01-2.01,2.01c0,0-2.01-.08-2.01-2.01v-.08s0-2.01,2.01-2.01c0,0,2.01,0,2.01,2.01ZM367.84,40.64v-.08s0-2.01,2.01-2.01c0,0,2.01,0,2.01,2.01v.08s0,2.01-2.01,2.01c0,0-2.01,0-2.01-2.01ZM371.87,11.78v.08s0,2.01-2.01,2.01c0,0-2.01,0-2.01-2.01v-.08s0-2.01,2.01-2.01c0,0,2.01,0,2.01,2.01ZM373.92,38.54h-.07s-1.98,0-1.98-1.98V15.85s0-1.98,1.98-1.98h.07s1.98,0,1.98,1.98v20.71s0,1.98-1.98,1.98Z"/>
  </g>
  <g>
    <path class="st0" d="M1.37,55.3h2.84c1.84,0,3.19.67,3.19,2.57s-1.35,2.69-3.19,2.69h-1.66v3.84h-1.18v-9.1ZM4.05,59.61c1.41,0,2.19-.58,2.19-1.75s-.78-1.62-2.19-1.62h-1.5v3.37h1.5ZM4.9,59.62l2.77,4.77h-1.32l-2.37-4.16.92-.61Z"/>
    <path class="st0" d="M9.9,55.3h5.63v.98h-4.47v2.84h3.77v.98h-3.77v3.3h4.6v.98h-5.77v-9.1Z"/>
    <path class="st0" d="M18.5,55.3h1.15v8.11h4.49v.98h-5.65v-9.1Z"/>
    <path class="st0" d="M26.54,55.3h5.63v.98h-4.47v2.84h3.77v.98h-3.77v3.3h4.6v.98h-5.77v-9.1Z"/>
    <path class="st0" d="M33.86,55.3h1.25l1.46,4.91c.32,1.07.54,1.94.87,3h.06c.33-1.05.57-1.93.87-3l1.46-4.91h1.19l-2.89,9.1h-1.36l-2.91-9.1Z"/>
    <path class="st0" d="M45.09,55.3h1.33l3.07,9.1h-1.25l-1.57-5.08c-.32-1.01-.62-2.01-.9-3.07h-.06c-.29,1.05-.58,2.05-.9,3.07l-1.59,5.08h-1.19l3.07-9.1ZM43.65,60.69h4.17v.94h-4.17v-.94Z"/>
    <path class="st0" d="M50.92,55.3h1.42l1.28,3.88.44,1.47h.06l.43-1.47,1.29-3.88h1.41v9.1h-1.11v-4.55c0-.89.14-2.44.19-3.22h-.04l-.51,1.78-1.3,3.58h-.83l-1.28-3.58-.53-1.78h-.03c.08.78.19,2.33.19,3.22v4.55h-1.08v-9.1Z"/>
    <path class="st0" d="M59.56,63.41h2.26v-7.13h-2.26v-.98h5.69v.98h-2.26v7.13h2.26v.98h-5.69v-.98Z"/>
    <path class="st0" d="M68.14,55.3h5.63v.98h-4.47v2.84h3.77v.98h-3.77v3.3h4.61v.98h-5.77v-9.1Z"/>
    <path class="st0" d="M76.02,55.3h1.28l2.91,5.71.87,1.89h.03c-.04-.9-.15-1.93-.15-2.88v-4.72h1.11v9.1h-1.28l-2.91-5.71-.87-1.89h-.03c.04.93.15,1.9.15,2.84v4.76h-1.11v-9.1Z"/>
    <path class="st0" d="M86.78,56.28h-3.01v-.98h7.18v.98h-3.01v8.11h-1.17v-8.11Z"/>
    <path class="st0" d="M92.18,59.8c0-2.94,1.44-4.67,3.5-4.67s3.5,1.73,3.5,4.67-1.44,4.76-3.5,4.76-3.5-1.78-3.5-4.76ZM97.97,59.8c0-2.29-.92-3.65-2.29-3.65s-2.29,1.36-2.29,3.65.92,3.73,2.29,3.73,2.29-1.4,2.29-3.73Z"/>
    <path class="st0" d="M109.36,55.3h2.25c2.73,0,4.22,1.62,4.22,4.51s-1.48,4.59-4.16,4.59h-2.3v-9.1ZM111.53,63.44c2.07,0,3.09-1.33,3.09-3.63s-1.03-3.55-3.09-3.55h-1v7.18h1Z"/>
    <path class="st0" d="M118.06,55.3h5.63v.98h-4.47v2.84h3.77v.98h-3.77v3.3h4.61v.98h-5.77v-9.1Z"/>
    <path class="st0" d="M134.32,55.3h2.25c2.73,0,4.22,1.62,4.22,4.51s-1.48,4.59-4.16,4.59h-2.3v-9.1ZM136.49,63.44c2.07,0,3.09-1.33,3.09-3.63s-1.03-3.55-3.09-3.55h-1v7.18h1Z"/>
    <path class="st0" d="M144.93,55.3h1.33l3.07,9.1h-1.25l-1.57-5.08c-.32-1.01-.62-2.01-.9-3.07h-.06c-.29,1.05-.58,2.05-.9,3.07l-1.59,5.08h-1.19l3.07-9.1ZM143.49,60.69h4.17v.94h-4.17v-.94Z"/>
    <path class="st0" d="M153.34,56.28h-3.01v-.98h7.18v.98h-3.01v8.11h-1.17v-8.11Z"/>
    <path class="st0" d="M158.74,59.8c0-2.94,1.44-4.67,3.5-4.67s3.5,1.73,3.5,4.67-1.44,4.76-3.5,4.76-3.5-1.78-3.5-4.76ZM164.53,59.8c0-2.29-.92-3.65-2.29-3.65s-2.29,1.36-2.29,3.65.92,3.73,2.29,3.73,2.29-1.4,2.29-3.73Z"/>
    <path class="st0" d="M167.33,63.22l.69-.8c.69.68,1.64,1.12,2.66,1.12,1.25,0,1.97-.6,1.97-1.43,0-.97-.71-1.25-1.62-1.64l-1.32-.58c-.9-.36-1.96-1-1.96-2.34s1.25-2.41,2.98-2.41c1.14,0,2.14.46,2.8,1.12l-.61.75c-.6-.53-1.29-.85-2.23-.85-1.05,0-1.76.5-1.76,1.32,0,.87.85,1.19,1.62,1.5l1.28.57c1.12.44,2.01,1.08,2.01,2.43,0,1.44-1.22,2.59-3.22,2.59-1.33,0-2.48-.53-3.3-1.34Z"/>
    <path class="st0" d="M183.97,63.22l.69-.8c.69.68,1.64,1.12,2.66,1.12,1.25,0,1.97-.6,1.97-1.43,0-.97-.71-1.25-1.62-1.64l-1.32-.58c-.9-.36-1.96-1-1.96-2.34s1.25-2.41,2.98-2.41c1.14,0,2.14.46,2.8,1.12l-.61.75c-.6-.53-1.29-.85-2.23-.85-1.05,0-1.76.5-1.76,1.32,0,.87.85,1.19,1.62,1.5l1.28.57c1.12.44,2.01,1.08,2.01,2.43,0,1.44-1.22,2.59-3.22,2.59-1.33,0-2.48-.53-3.3-1.34Z"/>
    <path class="st0" d="M192.02,59.8c0-2.94,1.44-4.67,3.5-4.67s3.5,1.73,3.5,4.67-1.44,4.76-3.5,4.76-3.5-1.78-3.5-4.76ZM197.8,59.8c0-2.29-.92-3.65-2.29-3.65s-2.29,1.36-2.29,3.65.92,3.73,2.29,3.73,2.29-1.4,2.29-3.73Z"/>
    <path class="st0" d="M201.05,55.3h2.58c1.86,0,3.12.62,3.12,2.22,0,.9-.51,1.71-1.6,1.98v.06c1.33.21,2.11.93,2.11,2.18,0,1.79-1.39,2.66-3.43,2.66h-2.79v-9.1ZM203.43,59.12c1.55,0,2.18-.5,2.18-1.51s-.72-1.35-2.12-1.35h-1.29v2.86h1.23ZM203.67,63.42c1.55,0,2.46-.51,2.46-1.75,0-1.12-.86-1.58-2.46-1.58h-1.47v3.33h1.47Z"/>
    <path class="st0" d="M209.37,55.3h2.84c1.84,0,3.19.67,3.19,2.57s-1.34,2.69-3.19,2.69h-1.67v3.84h-1.18v-9.1ZM212.05,59.61c1.42,0,2.19-.58,2.19-1.75s-.78-1.62-2.19-1.62h-1.5v3.37h1.5ZM212.89,59.62l2.77,4.77h-1.32l-2.37-4.16.92-.61Z"/>
    <path class="st0" d="M217.9,55.3h5.63v.98h-4.47v2.84h3.77v.98h-3.77v3.3h4.61v.98h-5.77v-9.1Z"/>
    <path class="st0" d="M234.06,63.05l.74-.71c.53.8,1.25,1.19,1.96,1.19,1.29,0,1.87-.65,1.87-2.15v-5.12h-3.8v-.98h4.98v6.2c0,1.69-.76,3.08-3.02,3.08-1.01,0-2.08-.47-2.72-1.51Z"/>
    <path class="st0" d="M242.37,60.96v-5.66h1.18v5.69c0,1.87.82,2.55,1.9,2.55s1.93-.68,1.93-2.55v-5.69h1.12v5.66c0,2.61-1.28,3.61-3.05,3.61s-3.08-1-3.08-3.61Z"/>
    <path class="st0" d="M251.18,55.3h5.63v.98h-4.47v2.84h3.77v.98h-3.77v3.3h4.61v.98h-5.77v-9.1Z"/>
    <path class="st0" d="M258.65,59.85c0-2.94,1.68-4.72,4.04-4.72,1.21,0,2,.57,2.51,1.11l-.67.73c-.43-.46-.97-.82-1.84-.82-1.71,0-2.82,1.4-2.82,3.66s1.01,3.72,2.79,3.72c.64,0,1.24-.19,1.57-.53v-2.37h-1.8v-.96h2.88v3.83c-.57.58-1.54,1.05-2.72,1.05-2.29,0-3.94-1.75-3.94-4.72Z"/>
    <path class="st0" d="M267.33,60.96v-5.66h1.18v5.69c0,1.87.82,2.55,1.9,2.55s1.93-.68,1.93-2.55v-5.69h1.12v5.66c0,2.61-1.28,3.61-3.05,3.61s-3.08-1-3.08-3.61Z"/>
    <path class="st0" d="M275.87,63.41h2.26v-7.13h-2.26v-.98h5.69v.98h-2.26v7.13h2.26v.98h-5.69v-.98Z"/>
    <path class="st0" d="M286.45,56.28h-3.01v-.98h7.19v.98h-3.01v8.11h-1.17v-8.11Z"/>
    <path class="st0" d="M291.86,59.8c0-2.94,1.44-4.67,3.5-4.67s3.5,1.73,3.5,4.67-1.44,4.76-3.5,4.76-3.5-1.78-3.5-4.76ZM297.64,59.8c0-2.29-.92-3.65-2.29-3.65s-2.29,1.36-2.29,3.65.92,3.73,2.29,3.73,2.29-1.4,2.29-3.73Z"/>
    <path class="st0" d="M300.44,63.22l.69-.8c.69.68,1.64,1.12,2.66,1.12,1.25,0,1.97-.6,1.97-1.43,0-.97-.71-1.25-1.62-1.64l-1.32-.58c-.9-.36-1.96-1-1.96-2.34s1.25-2.41,2.98-2.41c1.14,0,2.14.46,2.8,1.12l-.61.75c-.6-.53-1.29-.85-2.23-.85-1.05,0-1.76.5-1.76,1.32,0,.87.85,1.19,1.62,1.5l1.28.57c1.12.44,2.01,1.08,2.01,2.43,0,1.44-1.22,2.59-3.22,2.59-1.33,0-2.48-.53-3.3-1.34Z"/>
    <path class="st0" d="M317.36,55.3h2.25c2.73,0,4.22,1.62,4.22,4.51s-1.48,4.59-4.16,4.59h-2.3v-9.1ZM319.52,63.44c2.07,0,3.09-1.33,3.09-3.63s-1.03-3.55-3.09-3.55h-1v7.18h1Z"/>
    <path class="st0" d="M326.05,55.3h5.63v.98h-4.47v2.84h3.77v.98h-3.77v3.3h4.61v.98h-5.77v-9.1Z"/>
    <path class="st0" d="M342.01,59.85c0-2.93,1.71-4.72,4.08-4.72,1.1,0,1.96.53,2.5,1.11l-.67.73c-.47-.5-1.07-.82-1.83-.82-1.73,0-2.87,1.4-2.87,3.66s1.14,3.72,2.87,3.72c.83,0,1.47-.36,2.04-1l.67.71c-.71.83-1.61,1.32-2.82,1.32-2.25,0-3.97-1.75-3.97-4.72Z"/>
    <path class="st0" d="M351.01,55.3h5.63v.98h-4.47v2.84h3.77v.98h-3.77v3.3h4.61v.98h-5.77v-9.1Z"/>
    <path class="st0" d="M359.61,55.3h1.15v8.11h4.49v.98h-5.65v-9.1Z"/>
    <path class="st0" d="M367.17,60.96v-5.66h1.18v5.69c0,1.87.82,2.55,1.9,2.55s1.93-.68,1.93-2.55v-5.69h1.12v5.66c0,2.61-1.28,3.61-3.05,3.61s-3.08-1-3.08-3.61Z"/>
  </g>
</svg>